<svg width="90" height="90" viewBox="0 0 90 90" fill="none" xmlns="http://www.w3.org/2000/svg">
<g filter="url(#filter0_d_26_126)">
<rect x="30" y="18" width="30" height="30" rx="8" fill="white"/>
<rect x="30.5" y="18.5" width="29" height="29" rx="7.5" stroke="#2A4E63"/>
</g>
<path d="M43.1669 34.9565L42.9547 34.7444L39.6675 31.4574L39.6674 31.4574C39.0688 30.8586 38.0979 30.8585 37.4991 31.4574C36.9003 32.0563 36.9003 33.0272 37.4991 33.626L42.0826 38.2094L42.0826 38.2094C42.6812 38.8081 43.6521 38.8082 44.2509 38.2094L43.1669 34.9565ZM43.1669 34.9565L43.379 34.7444L50.3326 27.7909L50.3326 27.7909C50.9313 27.1921 51.9021 27.192 52.5009 27.7909C53.0997 28.3897 53.0997 29.3605 52.5009 29.9595C52.5009 29.9595 52.5009 29.9595 52.5009 29.9595L44.2509 38.2094L43.1669 34.9565Z" fill="#2A4E63" stroke="white" stroke-width="0.6"/>
<defs>
<filter id="filter0_d_26_126" x="0" y="0" width="90" height="90" filterUnits="userSpaceOnUse" color-interpolation-filters="sRGB">
<feFlood flood-opacity="0" result="BackgroundImageFix"/>
<feColorMatrix in="SourceAlpha" type="matrix" values="0 0 0 0 0 0 0 0 0 0 0 0 0 0 0 0 0 0 127 0" result="hardAlpha"/>
<feOffset dy="12"/>
<feGaussianBlur stdDeviation="15"/>
<feComposite in2="hardAlpha" operator="out"/>
<feColorMatrix type="matrix" values="0 0 0 0 0 0 0 0 0 0 0 0 0 0 0 0 0 0 0.06 0"/>
<feBlend mode="normal" in2="BackgroundImageFix" result="effect1_dropShadow_26_126"/>
<feBlend mode="normal" in="SourceGraphic" in2="effect1_dropShadow_26_126" result="shape"/>
</filter>
</defs>
</svg>
