<svg width="500" height="300" viewBox="0 0 500 300" fill="none" xmlns="http://www.w3.org/2000/svg">
<rect width="500" height="300" fill="#F5F5F5"/>
<path d="M213.68 155.35C214.166 155.337 214.65 155.424 215.101 155.606C215.552 155.789 215.96 156.062 216.3 156.41C217.45 157.6 217.59 159.25 216.85 161.05L217.45 161.32C218.547 159.494 218.989 157.35 218.703 155.239C218.418 153.129 217.422 151.179 215.88 149.71C215.096 148.846 214.141 148.155 213.075 147.68C212.009 147.205 210.857 146.956 209.69 146.95C203.59 146.95 197.34 153.1 193.16 153.1C192.708 153.11 192.259 153.026 191.84 152.854C191.422 152.682 191.044 152.425 190.73 152.1C188.73 150.1 189.73 147.1 192.73 144.16C194.412 142.408 196.543 141.153 198.89 140.53C200.54 140.823 202.214 140.963 203.89 140.95C212.66 140.95 217.62 137.82 217.62 132.18C217.62 127.72 214.4 124.83 208.52 123.87C215.64 123.04 217.43 120.29 217.43 117.12C217.43 113.54 214.43 111.43 209.72 111.43C208.782 111.441 207.847 111.518 206.92 111.66V112.26C207.857 112.093 208.808 112.016 209.76 112.03C214.08 112.03 216.83 113.91 216.83 117.12C216.83 120.33 214.83 123.5 203.83 123.5C194.88 123.5 189.83 126.67 189.83 132.18C189.823 133.555 190.192 134.906 190.897 136.087C191.602 137.268 192.616 138.233 193.83 138.88L194.43 139.25C195.422 139.683 196.453 140.018 197.51 140.25C195.621 140.951 193.913 142.065 192.51 143.51C187.46 148.51 187.23 154.94 191.41 159.07C192.101 159.798 192.934 160.377 193.858 160.771C194.781 161.165 195.776 161.365 196.78 161.36C202.71 161.41 209.28 155.35 213.68 155.35ZM199.09 132.08C199.09 126.99 200.74 124.14 203.68 124.14C206.62 124.14 208.26 126.99 208.26 132.08C208.26 137.41 206.61 140.39 203.68 140.39C200.75 140.39 199.09 137.41 199.09 132.08Z" fill="#2A4E63"/>
<path d="M249.07 142.68H248.52C247.88 149.38 243.79 152.14 239.16 152.14C233.28 152.14 229.84 148.61 229.84 138.46H248.66C248.94 127.46 242.37 122.94 234.75 122.94C225.57 122.94 219.14 129.1 219.14 138.32C219.14 147.54 226.08 153.79 236.14 153.79C243 153.79 248.38 150.4 249.07 142.68ZM234.7 123.54C239.2 123.54 238.88 132.95 238.88 137.91H229.88C229.89 128.64 231.26 123.54 234.7 123.54Z" fill="#2A4E63"/>
<path d="M267.2 126.34C269.59 126.34 270.69 127.99 270.69 131.48V145.25C270.693 147.514 271.593 149.685 273.194 151.286C274.795 152.887 276.966 153.787 279.23 153.79H280.79V134.05C280.79 127.72 277.34 123.54 271.06 123.54C265.18 123.54 262.24 127.22 261.06 132.68C261.063 131.558 260.844 130.446 260.415 129.409C259.987 128.371 259.358 127.429 258.565 126.635C257.771 125.842 256.829 125.213 255.791 124.785C254.754 124.356 253.642 124.137 252.52 124.14H251V145.25C251.003 147.514 251.903 149.685 253.504 151.286C255.105 152.887 257.276 153.787 259.54 153.79H261.1V137C261.42 131.07 263.48 126.34 267.2 126.34Z" fill="#2A4E63"/>
<path d="M312.32 142.68H311.77C311.13 149.38 307.04 152.14 302.41 152.14C296.53 152.14 293.09 148.61 293.09 138.46H311.91C312.19 127.46 305.62 122.94 298 122.94C288.82 122.94 282.39 129.1 282.39 138.32C282.39 147.54 289.33 153.79 299.39 153.79C306.26 153.79 311.63 150.4 312.32 142.68ZM298 123.54C302.5 123.54 302.18 132.95 302.18 137.91H293.18C293.14 128.64 294.51 123.54 298 123.54Z" fill="#2A4E63"/>
<path d="M335.23 124.14V123.54C328.57 123.54 325.49 127.54 324.3 133.04C324.297 130.679 323.357 128.415 321.687 126.746C320.016 125.077 317.751 124.14 315.39 124.14H314.2V144.89C314.205 147.251 315.146 149.513 316.816 151.181C318.486 152.849 320.749 153.787 323.11 153.79H324.3V139.51C324.3 131.21 326.59 124.14 335.23 124.14Z" fill="#2A4E63"/>
<path d="M350 122.94C343.43 122.94 339 125.51 337.19 130.2H337.83C338.52 128.423 339.74 126.901 341.326 125.842C342.911 124.782 344.784 124.237 346.69 124.28C351.28 124.28 353.12 126.85 353.12 132.54V136.54C341.51 137.6 334.34 141.18 334.34 147.29C334.34 150.54 336.46 153.8 341.55 153.8C347.47 153.8 352.07 150.73 353.35 143.06V143.93C353.345 146.541 354.376 149.047 356.217 150.897C358.059 152.748 360.559 153.792 363.17 153.8V135.66C363.18 126.85 357.76 122.94 350 122.94ZM344.45 145.3C344.45 140.66 348.02 137.82 353.12 136.99V138.37C353.12 146.95 350.12 149.53 347.79 149.53C345.74 149.53 344.41 148.1 344.41 145.3H344.45Z" fill="#2A4E63"/>
<path d="M386.49 142.73H385.9C385.72 149.25 382.41 151.27 380.39 151.27C378.37 151.27 377.54 150.03 377.54 147.09V124.18H385.9V123.59H377.54C377.543 122.577 377.345 121.573 376.958 120.636C376.572 119.7 376.004 118.849 375.288 118.132C374.571 117.416 373.72 116.848 372.784 116.462C371.847 116.075 370.843 115.877 369.83 115.88H367.44V123.59H363.44V124.18H367.44V144.06C367.44 151.63 372.49 153.79 376.99 153.79C381.49 153.79 386.49 150.77 386.49 142.73Z" fill="#2A4E63"/>
<path d="M416 142.68H415.45C414.81 149.38 410.72 152.14 406.09 152.14C400.21 152.14 396.77 148.61 396.77 138.46H415.59C415.87 127.46 409.3 122.94 401.68 122.94C392.5 122.94 386.07 129.1 386.07 138.32C386.07 147.54 393.01 153.79 403.07 153.79C409.9 153.79 415.28 150.4 416 142.68ZM401.6 123.54C406.09 123.54 405.77 132.95 405.77 137.91H396.77C396.78 128.64 398.15 123.54 401.6 123.54Z" fill="#2A4E63"/>
<path d="M224.19 160.76H227.52C228.17 160.752 228.816 160.857 229.43 161.07C229.987 161.26 230.503 161.556 230.95 161.94C231.377 162.304 231.719 162.758 231.95 163.27C232.315 164.056 232.415 164.939 232.234 165.787C232.054 166.634 231.603 167.401 230.95 167.97C230.503 168.351 229.987 168.643 229.43 168.83C228.816 169.043 228.17 169.148 227.52 169.14H225.64V174.67H224.19V160.76ZM227.52 167.76C228.387 167.804 229.24 167.522 229.91 166.97C230.214 166.718 230.457 166.399 230.618 166.039C230.779 165.678 230.855 165.285 230.84 164.89C230.855 164.498 230.779 164.108 230.618 163.75C230.456 163.393 230.214 163.078 229.91 162.83C229.233 162.292 228.384 162.019 227.52 162.06H225.64V167.76H227.52Z" fill="#2A4E63"/>
<path d="M245.37 160.33H245.79L251.08 174.67H249.48L248.17 171H242.89L241.59 174.67H240.08L245.37 160.33ZM247.7 169.66L245.54 163.66L243.38 169.66H247.7Z" fill="#2A4E63"/>
<path d="M263.14 174.87C262.223 174.877 261.321 174.647 260.52 174.2C259.699 173.734 259.01 173.066 258.52 172.26L259.63 171.35C259.973 171.985 260.475 172.521 261.086 172.905C261.698 173.289 262.399 173.507 263.12 173.54C263.847 173.584 264.563 173.348 265.12 172.88C265.371 172.661 265.57 172.388 265.702 172.082C265.834 171.775 265.894 171.443 265.88 171.11C265.882 170.805 265.823 170.503 265.706 170.221C265.589 169.939 265.417 169.684 265.2 169.47C264.57 168.902 263.832 168.467 263.03 168.19C262.001 167.854 261.067 167.274 260.31 166.5C259.746 165.857 259.443 165.025 259.46 164.17C259.452 163.667 259.544 163.167 259.73 162.7C259.902 162.269 260.161 161.877 260.49 161.55C260.833 161.228 261.238 160.979 261.68 160.82C262.182 160.634 262.715 160.543 263.25 160.55C264.029 160.551 264.797 160.745 265.484 161.113C266.171 161.481 266.757 162.012 267.19 162.66L266.06 163.57C265.708 163.06 265.256 162.628 264.73 162.3C264.272 162.032 263.75 161.894 263.22 161.9C262.606 161.868 262.004 162.076 261.54 162.48C261.33 162.68 261.165 162.922 261.058 163.192C260.951 163.461 260.904 163.751 260.92 164.04C260.913 164.331 260.964 164.621 261.071 164.892C261.177 165.164 261.337 165.411 261.54 165.62C262.153 166.17 262.871 166.592 263.65 166.86C264.703 167.21 265.659 167.802 266.44 168.59C267.028 169.249 267.346 170.106 267.33 170.99C267.337 171.532 267.232 172.071 267.02 172.57C266.817 173.035 266.517 173.45 266.14 173.79C265.754 174.142 265.302 174.414 264.81 174.59C264.275 174.782 263.709 174.877 263.14 174.87Z" fill="#2A4E63"/>
<path d="M279.81 174.87C278.893 174.877 277.991 174.647 277.19 174.2C276.369 173.734 275.681 173.066 275.19 172.26L276.3 171.35C276.643 171.985 277.145 172.521 277.756 172.905C278.368 173.289 279.069 173.507 279.79 173.54C280.516 173.581 281.231 173.345 281.79 172.88C282.039 172.659 282.235 172.386 282.365 172.08C282.494 171.773 282.554 171.442 282.54 171.11C282.542 170.805 282.483 170.503 282.366 170.221C282.249 169.939 282.077 169.684 281.86 169.47C281.23 168.902 280.492 168.467 279.69 168.19C278.671 167.849 277.749 167.27 277 166.5C276.436 165.857 276.133 165.025 276.15 164.17C276.142 163.667 276.234 163.167 276.42 162.7C276.592 162.269 276.851 161.877 277.18 161.55C277.523 161.228 277.928 160.979 278.37 160.82C278.872 160.634 279.405 160.543 279.94 160.55C280.719 160.551 281.487 160.745 282.174 161.113C282.861 161.481 283.447 162.012 283.88 162.66L282.75 163.57C282.398 163.06 281.946 162.628 281.42 162.3C280.962 162.032 280.44 161.894 279.91 161.9C279.296 161.868 278.694 162.076 278.23 162.48C278.02 162.68 277.855 162.922 277.748 163.192C277.641 163.461 277.594 163.751 277.61 164.04C277.603 164.331 277.654 164.621 277.761 164.892C277.867 165.164 278.027 165.411 278.23 165.62C278.843 166.17 279.561 166.592 280.34 166.86C281.393 167.21 282.349 167.802 283.13 168.59C283.713 169.255 284.024 170.116 284 171C284.007 171.542 283.902 172.081 283.69 172.58C283.487 173.045 283.187 173.46 282.81 173.8C282.424 174.152 281.972 174.424 281.48 174.6C280.944 174.789 280.378 174.88 279.81 174.87Z" fill="#2A4E63"/>
<path d="M291.89 160.76H293.43L297 171.41L300.88 160.76H301.29L305.2 171.24L308.69 160.76H310.15L305.41 175.09H305.09L301 164.18L297 175.09H296.58L291.89 160.76Z" fill="#2A4E63"/>
<path d="M324.94 174.87C324.011 174.878 323.091 174.691 322.24 174.32C321.409 173.961 320.658 173.441 320.03 172.79C319.395 172.124 318.887 171.348 318.53 170.5C317.797 168.716 317.797 166.714 318.53 164.93C318.885 164.084 319.393 163.311 320.03 162.65C320.653 161.993 321.405 161.472 322.24 161.12C323.089 160.744 324.007 160.55 324.935 160.55C325.863 160.55 326.781 160.744 327.63 161.12C328.465 161.472 329.217 161.993 329.84 162.65C330.48 163.304 330.989 164.075 331.34 164.92C332.073 166.704 332.073 168.706 331.34 170.49C330.632 172.187 329.306 173.553 327.63 174.31C326.782 174.683 325.866 174.874 324.94 174.87ZM324.94 173.45C325.673 173.454 326.399 173.304 327.07 173.01C327.72 172.729 328.306 172.317 328.79 171.8C329.281 171.276 329.665 170.661 329.92 169.99C330.48 168.522 330.48 166.898 329.92 165.43C329.663 164.76 329.279 164.145 328.79 163.62C328.303 163.106 327.718 162.694 327.07 162.41C326.394 162.126 325.668 161.98 324.935 161.98C324.202 161.98 323.476 162.126 322.8 162.41C322.156 162.697 321.575 163.108 321.09 163.62C320.601 164.147 320.215 164.761 319.95 165.43C319.403 166.901 319.403 168.519 319.95 169.99C320.212 170.66 320.599 171.274 321.09 171.8C321.583 172.326 322.18 172.744 322.842 173.028C323.505 173.312 324.219 173.456 324.94 173.45Z" fill="#2A4E63"/>
<path d="M341 160.76H344.34C344.985 160.756 345.626 160.854 346.24 161.05C346.8 161.231 347.317 161.523 347.76 161.91C348.184 162.265 348.526 162.709 348.76 163.21C349.004 163.718 349.128 164.276 349.12 164.84C349.123 165.311 349.042 165.778 348.88 166.22C348.731 166.633 348.514 167.018 348.24 167.36C347.959 167.703 347.621 167.994 347.24 168.22C346.849 168.458 346.429 168.643 345.99 168.77L349.99 174.67H348.25L344.39 168.94H342.51V174.67H341V160.76ZM344.34 167.58C345.199 167.619 346.044 167.357 346.73 166.84C347.027 166.6 347.264 166.295 347.424 165.948C347.584 165.601 347.661 165.222 347.65 164.84C347.667 164.458 347.592 164.077 347.432 163.729C347.272 163.381 347.031 163.076 346.73 162.84C346.044 162.323 345.199 162.061 344.34 162.1H342.46V167.58H344.34Z" fill="#2A4E63"/>
<path d="M358.88 160.76H363.43C364.433 160.75 365.429 160.923 366.37 161.27C367.243 161.595 368.042 162.092 368.72 162.73C369.389 163.379 369.919 164.156 370.278 165.016C370.637 165.875 370.818 166.799 370.81 167.73C370.822 168.689 370.632 169.64 370.25 170.52C369.894 171.347 369.374 172.092 368.72 172.71C368.039 173.342 367.241 173.835 366.37 174.16C365.434 174.527 364.436 174.71 363.43 174.7H358.88V160.76ZM363.41 173.32C364.212 173.332 365.009 173.193 365.76 172.91C366.444 172.653 367.068 172.259 367.596 171.754C368.123 171.249 368.543 170.642 368.83 169.97C369.128 169.251 369.278 168.479 369.27 167.7C369.277 166.934 369.127 166.176 368.83 165.47C368.549 164.793 368.132 164.182 367.604 163.674C367.075 163.166 366.448 162.773 365.76 162.52C365.01 162.234 364.213 162.092 363.41 162.1H360.33V173.32H363.41Z" fill="#2A4E63"/>
<path d="M383.28 162.1H378.71V160.76H389.3V162.1H384.74V174.67H383.28V162.1Z" fill="#2A4E63"/>
<path d="M404.14 174.87C403.211 174.878 402.291 174.691 401.44 174.32C400.608 173.964 399.856 173.443 399.23 172.79C398.595 172.124 398.087 171.348 397.73 170.5C396.997 168.716 396.997 166.714 397.73 164.93C398.085 164.084 398.593 163.311 399.23 162.65C400.185 161.644 401.428 160.957 402.788 160.683C404.148 160.409 405.56 160.562 406.83 161.12C407.665 161.472 408.417 161.993 409.04 162.65C409.677 163.307 410.185 164.077 410.54 164.92C411.273 166.704 411.273 168.706 410.54 170.49C410.185 171.333 409.677 172.103 409.04 172.76C408.407 173.411 407.658 173.937 406.83 174.31C405.982 174.683 405.066 174.874 404.14 174.87ZM404.14 173.45C404.873 173.454 405.599 173.304 406.27 173.01C406.924 172.73 407.513 172.319 408 171.8C408.488 171.274 408.872 170.66 409.13 169.99C409.69 168.522 409.69 166.898 409.13 165.43C408.869 164.762 408.486 164.148 408 163.62C407.513 163.106 406.928 162.694 406.28 162.41C405.604 162.126 404.878 161.98 404.145 161.98C403.412 161.98 402.686 162.126 402.01 162.41C401.366 162.697 400.785 163.108 400.3 163.62C399.811 164.147 399.424 164.761 399.16 165.43C398.613 166.901 398.613 168.519 399.16 169.99C399.422 170.66 399.809 171.274 400.3 171.8C400.793 172.326 401.39 172.744 402.052 173.028C402.715 173.312 403.429 173.456 404.15 173.45H404.14Z" fill="#2A4E63"/>
<path d="M420.83 174.78C420.694 174.782 420.56 174.757 420.434 174.705C420.309 174.653 420.195 174.577 420.1 174.48C420.005 174.38 419.93 174.263 419.88 174.134C419.831 174.005 419.807 173.868 419.81 173.73C419.805 173.593 419.828 173.457 419.878 173.33C419.928 173.203 420.004 173.087 420.1 172.99C420.197 172.891 420.314 172.813 420.443 172.761C420.573 172.709 420.711 172.685 420.85 172.69C420.984 172.689 421.117 172.715 421.24 172.767C421.364 172.818 421.476 172.894 421.57 172.99C421.666 173.087 421.742 173.203 421.792 173.33C421.842 173.457 421.865 173.593 421.86 173.73C421.863 173.868 421.839 174.005 421.79 174.134C421.74 174.263 421.665 174.38 421.57 174.48C421.474 174.578 421.359 174.655 421.231 174.707C421.104 174.759 420.967 174.784 420.83 174.78Z" fill="#2A4E63"/>
<path d="M431.41 160.33H431.83L438 169.08L444.09 160.33H444.49V174.67H443.05V164.26L438.17 171.26H437.75L432.87 164.39V174.69H431.41V160.33Z" fill="#2A4E63"/>
<path d="M454.45 160.76H461.62V162.1H455.91V166.78H460.28V168.13H455.91V173.32H461.73V174.67H454.45V160.76Z" fill="#2A4E63"/>
<path d="M176.83 145.71L147.83 101.06C147.383 100.304 146.712 99.7064 145.91 99.35L138.85 98.41C136.85 98.09 133.53 97.07 132.08 98.97C129.367 102.483 126.61 106.013 123.81 109.56L125.07 109.48L131.74 100.94C131.79 100.874 131.855 100.82 131.93 100.783C132.005 100.746 132.087 100.727 132.17 100.727C132.253 100.727 132.335 100.746 132.41 100.783C132.485 100.82 132.55 100.874 132.6 100.94L141 114.07C141.066 114.158 141.101 114.265 141.101 114.375C141.101 114.485 141.066 114.592 141 114.68L138.88 117.29L138.97 120.29L141.97 116.64L142.08 116.54C142.191 116.469 142.327 116.444 142.456 116.472C142.585 116.5 142.698 116.579 142.77 116.69L151.26 129.84C151.314 129.931 151.338 130.037 151.329 130.143C151.32 130.249 151.279 130.349 151.21 130.43L141.65 141.78L141.53 141.87C141.475 141.907 141.414 141.932 141.349 141.944C141.284 141.957 141.218 141.956 141.153 141.942C141.089 141.928 141.028 141.901 140.974 141.863C140.92 141.825 140.875 141.776 140.84 141.72L139.59 139.72L139.81 147.01L140.48 146.22C140.515 146.181 140.556 146.148 140.6 146.12C140.681 146.068 140.774 146.041 140.87 146.041C140.966 146.041 141.059 146.068 141.14 146.12C141.216 146.161 141.279 146.224 141.32 146.3L149.45 159.3C149.514 159.392 149.544 159.503 149.535 159.614C149.526 159.725 149.478 159.83 149.4 159.91L140.51 170.06L140.6 173.16C140.6 173.223 140.577 173.284 140.534 173.33C140.491 173.376 140.433 173.405 140.37 173.41L138.76 173.46H137.47C137.472 173.493 137.472 173.527 137.47 173.56L127.62 184.82L127.49 184.92C127.433 184.954 127.37 184.976 127.304 184.986C127.238 184.995 127.171 184.991 127.107 184.975C127.043 184.958 126.983 184.928 126.93 184.888C126.877 184.848 126.833 184.798 126.8 184.74L120.25 173.67H119.25C121.51 177.55 123.793 181.41 126.1 185.25C126.58 185.973 127.186 186.603 127.89 187.11C128.431 187.368 129.013 187.528 129.61 187.58C131.07 187.68 133.97 187.86 138.33 188.11C138.939 188.281 139.58 188.305 140.2 188.18C140.286 188.171 140.37 188.151 140.45 188.12C140.618 188.072 140.781 188.012 140.94 187.94C141.04 187.94 141.13 187.84 141.23 187.79C141.337 187.734 141.437 187.667 141.53 187.59L177 147.93L177.74 147.09L176.83 145.71ZM166.98 131.71L175.75 144.95C175.787 144.999 175.805 145.059 175.8 145.12C175.8 145.16 175.792 145.2 175.776 145.237C175.761 145.274 175.738 145.308 175.709 145.336C175.68 145.364 175.645 145.386 175.608 145.4C175.57 145.415 175.53 145.421 175.49 145.42L164.19 145.11C164.141 145.106 164.093 145.091 164.05 145.067C164.007 145.043 163.969 145.01 163.94 144.97L155.08 131.37C155.04 131.315 155.019 131.248 155.02 131.18C155.028 131.099 155.066 131.023 155.127 130.969C155.189 130.915 155.268 130.887 155.35 130.89L166.74 131.58C166.787 131.574 166.835 131.579 166.881 131.595C166.926 131.61 166.967 131.636 167 131.67L166.98 131.71ZM143.06 112.9L134.18 99.23C134.169 99.2031 134.163 99.1742 134.163 99.145C134.163 99.1158 134.169 99.0869 134.18 99.06C134.184 99.0261 134.194 98.9933 134.211 98.9636C134.228 98.9339 134.25 98.908 134.277 98.8874C134.305 98.8668 134.336 98.8519 134.369 98.8438C134.402 98.8356 134.436 98.8343 134.47 98.84L146.17 100.38C146.208 100.386 146.245 100.399 146.278 100.42C146.31 100.441 146.338 100.468 146.36 100.5L155.15 113.79C155.165 113.846 155.165 113.904 155.15 113.96C155.14 114.028 155.105 114.09 155.051 114.132C154.997 114.175 154.929 114.196 154.86 114.19L143.24 113C143.201 112.992 143.165 112.975 143.134 112.951C143.103 112.927 143.077 112.895 143.06 112.86V112.9ZM144.59 115.25C144.553 115.201 144.535 115.141 144.54 115.08C144.55 115.009 144.587 114.945 144.642 114.9C144.698 114.856 144.769 114.834 144.84 114.84L156.43 115.97C156.471 115.974 156.511 115.987 156.548 116.008C156.584 116.029 156.615 116.056 156.64 116.09L165.45 129.39C165.466 129.442 165.466 129.498 165.45 129.55C165.445 129.62 165.413 129.685 165.361 129.732C165.308 129.778 165.24 129.803 165.17 129.8L153.72 129C153.676 128.999 153.634 128.988 153.595 128.967C153.557 128.946 153.524 128.916 153.5 128.88L144.59 115.25ZM142.51 144.5C142.451 144.398 142.425 144.28 142.434 144.162C142.443 144.045 142.487 143.932 142.56 143.84L152.08 132.58L152.21 132.48C152.335 132.4 152.487 132.371 152.633 132.401C152.778 132.431 152.907 132.517 152.99 132.64L161.39 145.64C161.457 145.742 161.488 145.864 161.477 145.985C161.466 146.107 161.414 146.222 161.33 146.31L151.56 157.49C151.527 157.531 151.486 157.565 151.44 157.59C151.314 157.669 151.161 157.696 151.015 157.664C150.869 157.633 150.742 157.545 150.66 157.42L142.51 144.5ZM151.51 175.5L140.97 187.11C140.944 187.142 140.91 187.167 140.871 187.183C140.833 187.199 140.791 187.204 140.75 187.2L129.46 186.53C129.397 186.528 129.336 186.503 129.29 186.46C129.264 186.435 129.243 186.405 129.228 186.371C129.214 186.337 129.207 186.301 129.207 186.265C129.207 186.229 129.214 186.192 129.228 186.159C129.243 186.125 129.264 186.095 129.29 186.07L139.51 174.55C139.537 174.519 139.571 174.494 139.609 174.478C139.647 174.463 139.689 174.456 139.73 174.46L151.34 175.04C151.401 175.045 151.46 175.065 151.51 175.1C151.556 175.159 151.578 175.233 151.571 175.308C151.563 175.383 151.527 175.451 151.47 175.5H151.51ZM163.65 162L153.05 173.65C153.024 173.682 152.99 173.707 152.951 173.723C152.913 173.739 152.871 173.744 152.83 173.74L141.17 173.15C141.108 173.153 141.047 173.131 141 173.09C140.95 173.039 140.922 172.971 140.922 172.9C140.922 172.829 140.95 172.761 141 172.71L151.22 161.19C151.278 161.139 151.353 161.11 151.43 161.11L163.49 161.56C163.549 161.566 163.605 161.59 163.65 161.63C163.674 161.654 163.694 161.683 163.707 161.715C163.72 161.746 163.727 161.781 163.727 161.815C163.727 161.849 163.72 161.883 163.707 161.915C163.694 161.947 163.674 161.976 163.65 162ZM176.12 148.27L165.52 159.93C165.496 159.959 165.465 159.982 165.43 159.998C165.396 160.014 165.358 160.021 165.32 160.02L153.15 159.63C153.122 159.632 153.094 159.627 153.068 159.617C153.042 159.606 153.019 159.59 153 159.57C152.976 159.547 152.957 159.519 152.943 159.488C152.93 159.457 152.923 159.424 152.923 159.39C152.923 159.356 152.93 159.323 152.943 159.292C152.957 159.261 152.976 159.233 153 159.21L163.22 147.67C163.244 147.643 163.273 147.62 163.305 147.605C163.338 147.589 163.374 147.581 163.41 147.58L175.96 147.86C176.016 147.86 176.069 147.882 176.11 147.92C176.133 147.942 176.152 147.968 176.165 147.996C176.178 148.025 176.185 148.056 176.186 148.088C176.187 148.119 176.181 148.151 176.17 148.18C176.159 148.21 176.142 148.237 176.12 148.26V148.27Z" fill="#2A4E63"/>
<path d="M140.5 170.13L149.39 160C149.463 159.917 149.508 159.813 149.517 159.703C149.526 159.593 149.499 159.483 149.44 159.39L141.31 146.39C141.269 146.314 141.206 146.251 141.13 146.21C141.051 146.159 140.959 146.132 140.865 146.132C140.771 146.132 140.679 146.159 140.6 146.21C140.551 146.235 140.507 146.269 140.47 146.31L139.8 147.1L140.5 170.13Z" fill="white"/>
<path d="M151.28 175L139.67 174.43C139.629 174.427 139.588 174.434 139.55 174.449C139.511 174.465 139.477 174.489 139.45 174.52L129.23 186.03C129.179 186.084 129.15 186.156 129.15 186.23C129.15 186.304 129.179 186.376 129.23 186.43C129.28 186.468 129.338 186.492 129.4 186.5L140.69 187.17C140.731 187.174 140.773 187.169 140.811 187.153C140.85 187.137 140.884 187.112 140.91 187.08L151.45 175.47C151.476 175.445 151.497 175.415 151.512 175.381C151.526 175.348 151.533 175.311 151.533 175.275C151.533 175.239 151.526 175.203 151.512 175.169C151.497 175.135 151.476 175.105 151.45 175.08C151.403 175.036 151.344 175.008 151.28 175Z" fill="white"/>
<path d="M126.75 184.82C126.819 184.934 126.929 185.017 127.058 185.051C127.187 185.084 127.324 185.066 127.44 185L127.57 184.9L137.42 173.64C137.428 173.607 137.428 173.573 137.42 173.54L120.16 173.75L126.75 184.82Z" fill="white"/>
<path d="M163.46 161.55L151.41 161.1C151.371 161.097 151.332 161.102 151.296 161.116C151.26 161.13 151.227 161.152 151.2 161.18L141 172.7C140.95 172.751 140.922 172.819 140.922 172.89C140.922 172.961 140.95 173.029 141 173.08C141.022 173.102 141.049 173.12 141.078 173.132C141.107 173.144 141.138 173.15 141.17 173.15L152.84 173.73C152.88 173.733 152.919 173.726 152.956 173.71C152.992 173.695 153.025 173.671 153.05 173.64L163.65 162C163.674 161.976 163.694 161.947 163.707 161.915C163.72 161.884 163.727 161.849 163.727 161.815C163.727 161.781 163.72 161.747 163.707 161.715C163.694 161.683 163.674 161.654 163.65 161.63C163.627 161.602 163.598 161.58 163.565 161.566C163.532 161.552 163.496 161.547 163.46 161.55Z" fill="white"/>
<path d="M175.94 147.85L163.39 147.57C163.354 147.57 163.318 147.579 163.285 147.594C163.252 147.61 163.223 147.632 163.2 147.66L153 159.21C152.954 159.257 152.929 159.32 152.929 159.385C152.929 159.45 152.954 159.513 153 159.56C153.047 159.595 153.102 159.615 153.16 159.62L165.34 160.01C165.411 160.01 165.48 159.981 165.53 159.93L176.13 148.26C176.154 148.238 176.173 148.21 176.186 148.18C176.199 148.15 176.206 148.118 176.206 148.085C176.206 148.052 176.199 148.02 176.186 147.99C176.173 147.96 176.154 147.932 176.13 147.91C176.106 147.884 176.076 147.865 176.043 147.855C176.01 147.844 175.974 147.843 175.94 147.85Z" fill="#E5F6FF"/>
<path d="M151.44 157.58C151.485 157.553 151.525 157.519 151.56 157.48L161.34 146.3C161.411 146.203 161.449 146.085 161.449 145.965C161.449 145.845 161.411 145.727 161.34 145.63L152.93 132.63C152.85 132.506 152.724 132.418 152.58 132.387C152.436 132.355 152.285 132.381 152.16 132.46L152.03 132.57L142.51 143.83C142.442 143.926 142.405 144.042 142.405 144.16C142.405 144.278 142.442 144.394 142.51 144.49L150.66 157.44C150.701 157.502 150.754 157.554 150.816 157.595C150.878 157.635 150.947 157.663 151.02 157.676C151.093 157.689 151.168 157.687 151.24 157.671C151.312 157.654 151.38 157.623 151.44 157.58Z" fill="white"/>
<path d="M140.83 141.77C140.902 141.881 141.015 141.96 141.144 141.988C141.273 142.016 141.409 141.991 141.52 141.92C141.568 141.898 141.61 141.864 141.64 141.82L151.2 130.48C151.266 130.396 151.301 130.292 151.301 130.185C151.301 130.078 151.266 129.974 151.2 129.89L142.73 116.74C142.658 116.629 142.545 116.551 142.416 116.522C142.287 116.494 142.151 116.519 142.04 116.59C141.994 116.615 141.953 116.649 141.92 116.69L138.92 120.34L139.51 139.78L140.83 141.77Z" fill="white"/>
<path d="M155 131.14C154.991 131.207 155.009 131.276 155.05 131.33L163.91 144.93C163.938 144.971 163.975 145.005 164.018 145.03C164.062 145.054 164.11 145.068 164.16 145.07L175.46 145.38C175.542 145.38 175.62 145.349 175.679 145.293C175.739 145.238 175.775 145.161 175.78 145.08C175.779 145.02 175.761 144.961 175.73 144.91L167 131.67C166.974 131.63 166.939 131.597 166.897 131.574C166.855 131.551 166.808 131.539 166.76 131.54L155.37 130.85C155.326 130.839 155.28 130.839 155.236 130.849C155.192 130.858 155.151 130.878 155.115 130.906C155.079 130.933 155.051 130.969 155.031 131.01C155.011 131.05 155 131.095 155 131.14Z" fill="#E5F6FF"/>
<path d="M127.45 109.51C128.75 109.59 130.11 109.76 132.37 110.05C134.01 110.25 135.67 110.48 137.31 110.73C137.717 110.842 138.102 111.021 138.45 111.26H138.54C138.591 111.274 138.637 111.304 138.671 111.345C138.705 111.386 138.726 111.437 138.73 111.49L138.9 117.26L141.02 114.65C141.083 114.561 141.117 114.454 141.117 114.345C141.117 114.236 141.083 114.129 141.02 114.04L132.61 101C132.534 100.885 132.417 100.804 132.282 100.774C132.148 100.744 132.007 100.768 131.89 100.84C131.838 100.869 131.793 100.91 131.76 100.96L125.08 109.5H125.14C125.909 109.455 126.681 109.458 127.45 109.51Z" fill="white"/>
<path d="M153.71 129L165.21 129.75C165.245 129.753 165.28 129.748 165.313 129.737C165.347 129.726 165.377 129.708 165.403 129.685C165.429 129.661 165.451 129.633 165.466 129.601C165.48 129.569 165.489 129.535 165.49 129.5C165.51 129.449 165.51 129.391 165.49 129.34L156.67 116.04C156.649 116.008 156.621 115.981 156.588 115.962C156.555 115.943 156.518 115.932 156.48 115.93L144.88 114.79C144.845 114.786 144.81 114.789 144.776 114.799C144.742 114.809 144.711 114.825 144.684 114.848C144.656 114.87 144.634 114.898 144.618 114.929C144.602 114.961 144.592 114.995 144.59 115.03C144.567 115.088 144.567 115.152 144.59 115.21L153.5 128.88C153.523 128.915 153.554 128.944 153.591 128.965C153.627 128.986 153.668 128.998 153.71 129Z" fill="white"/>
<path d="M155.15 113.91C155.152 113.852 155.135 113.796 155.1 113.75L146.31 100.46C146.292 100.427 146.266 100.398 146.235 100.378C146.204 100.357 146.168 100.344 146.13 100.34L134.43 98.79C134.395 98.7844 134.359 98.7859 134.325 98.7946C134.291 98.8032 134.259 98.8188 134.23 98.8403C134.202 98.8619 134.179 98.8889 134.162 98.9198C134.144 98.9507 134.134 98.9848 134.13 99.02C134.11 99.0749 134.11 99.1351 134.13 99.19L143.02 112.86C143.04 112.893 143.068 112.922 143.101 112.943C143.134 112.963 143.171 112.976 143.21 112.98L154.82 114.15C154.858 114.159 154.897 114.159 154.935 114.152C154.973 114.144 155.009 114.128 155.04 114.105C155.071 114.083 155.097 114.053 155.116 114.02C155.135 113.986 155.147 113.949 155.15 113.91Z" fill="white"/>
<path d="M140.5 170.13L139.8 147.07L139.58 139.78L139 120.34L138.91 117.34L138.74 111.57C138.736 111.517 138.715 111.466 138.681 111.425C138.647 111.384 138.601 111.354 138.55 111.34C138.55 111.34 138.48 111.34 138.46 111.34C138.113 111.099 137.728 110.92 137.32 110.81C135.68 110.56 134.02 110.33 132.38 110.13C130.12 109.85 128.76 109.67 127.46 109.59C126.691 109.541 125.919 109.541 125.15 109.59H125.09L123.83 109.67L118.7 109.97C116.4 110.15 114.03 110.29 111.64 110.41H111.4H110.4C110.354 110.396 110.306 110.396 110.26 110.41L134.42 141.95L134.49 142.05C134.463 141.493 134.256 140.96 133.9 140.53L127.59 132.44C127.539 132.36 127.517 132.264 127.53 132.17C127.533 132.124 127.546 132.079 127.566 132.038C127.587 131.997 127.615 131.96 127.65 131.93C127.727 131.871 127.823 131.842 127.92 131.85L137.55 132.62C137.803 132.638 138.04 132.751 138.212 132.937C138.385 133.122 138.481 133.366 138.48 133.62L138.89 150.77C138.893 150.878 138.874 150.985 138.835 151.085C138.797 151.186 138.738 151.278 138.664 151.356C138.59 151.434 138.501 151.496 138.402 151.54C138.304 151.584 138.198 151.607 138.09 151.61L129.4 151.3C129.328 151.305 129.257 151.289 129.193 151.256C129.13 151.222 129.077 151.172 129.04 151.11C129.02 151.041 129.02 150.969 129.04 150.9L111.29 174.16H111.68C111.751 174.16 111.82 174.131 111.87 174.08L111.97 173.94C111.97 173.88 112.08 173.88 112.15 173.86H112.85L119.15 173.78H120.15L137.41 173.57H138.7L140.31 173.52C140.373 173.515 140.431 173.486 140.474 173.44C140.517 173.394 140.54 173.333 140.54 173.27L140.5 170.13ZM137.6 130.13V130.37L137.55 130.13L127.28 129.26C127.187 129.252 127.101 129.21 127.038 129.142C126.975 129.073 126.94 128.983 126.94 128.89L126.48 111.18C126.48 111.131 126.49 111.083 126.508 111.039C126.527 110.994 126.555 110.954 126.59 110.92C126.628 110.877 126.676 110.843 126.73 110.822C126.784 110.801 126.842 110.794 126.9 110.8L137.21 112.13C137.299 112.142 137.38 112.184 137.44 112.25C137.501 112.316 137.536 112.401 137.54 112.49L137.95 129.76C137.948 129.853 137.91 129.942 137.845 130.008C137.781 130.075 137.693 130.115 137.6 130.12V130.13ZM138.83 171.93C138.794 171.975 138.749 172.011 138.697 172.035C138.644 172.06 138.587 172.072 138.53 172.07L128.48 172.21C128.366 172.208 128.257 172.164 128.174 172.086C128.091 172.009 128.04 171.903 128.03 171.79L127.58 154.22C127.579 154.16 127.59 154.1 127.612 154.044C127.635 153.988 127.669 153.937 127.712 153.895C127.755 153.853 127.807 153.82 127.863 153.798C127.919 153.777 127.98 153.767 128.04 153.77L138.11 154.06C138.225 154.06 138.335 154.105 138.418 154.185C138.5 154.266 138.547 154.375 138.55 154.49L138.96 171.62C138.96 171.676 138.948 171.732 138.925 171.783C138.903 171.835 138.871 171.881 138.83 171.92V171.93Z" fill="#2A4E63"/>
<path d="M137.6 130.12C137.696 130.117 137.788 130.077 137.855 130.008C137.922 129.939 137.96 129.846 137.96 129.75L137.55 112.48C137.548 112.39 137.514 112.304 137.453 112.238C137.392 112.172 137.309 112.13 137.22 112.12L126.91 110.79C126.851 110.784 126.791 110.791 126.736 110.812C126.68 110.833 126.63 110.866 126.59 110.91C126.527 110.982 126.491 111.074 126.49 111.17L126.95 128.88C126.95 128.973 126.985 129.063 127.048 129.132C127.111 129.2 127.197 129.242 127.29 129.25L137.56 130.12V130.36L137.6 130.12Z" fill="#E5F6FF"/>
<path d="M134.17 144.13L129 150.87C128.98 150.939 128.98 151.011 129 151.08C129.037 151.142 129.09 151.192 129.153 151.226C129.217 151.259 129.288 151.275 129.36 151.27L138.05 151.58C138.158 151.577 138.264 151.554 138.362 151.51C138.461 151.466 138.55 151.404 138.624 151.326C138.698 151.248 138.757 151.156 138.795 151.055C138.834 150.955 138.853 150.848 138.85 150.74L138.44 133.59C138.441 133.336 138.345 133.092 138.172 132.907C138 132.721 137.763 132.608 137.51 132.59L127.88 131.82C127.783 131.812 127.687 131.841 127.61 131.9C127.575 131.93 127.547 131.967 127.526 132.008C127.505 132.049 127.493 132.094 127.49 132.14C127.477 132.234 127.499 132.33 127.55 132.41L133.86 140.5C134.216 140.93 134.423 141.463 134.45 142.02L134.17 144.13Z" fill="white"/>
<path d="M128 171.78C128.01 171.894 128.061 172.001 128.144 172.08C128.226 172.159 128.335 172.206 128.45 172.21L138.5 172.06C138.559 172.06 138.617 172.048 138.67 172.024C138.724 172 138.771 171.964 138.81 171.92C138.889 171.832 138.932 171.718 138.93 171.6L138.52 154.48C138.515 154.368 138.468 154.261 138.389 154.181C138.309 154.102 138.202 154.055 138.09 154.05L128 153.76C127.94 153.759 127.88 153.769 127.825 153.791C127.769 153.813 127.718 153.846 127.675 153.888C127.632 153.93 127.598 153.98 127.575 154.035C127.552 154.091 127.54 154.15 127.54 154.21L128 171.78Z" fill="#E5F6FF"/>
<path d="M134.52 142.3C134.526 142.227 134.526 142.153 134.52 142.08C134.525 142.033 134.525 141.987 134.52 141.94L110.3 110.39L102 99.6L101.71 99.38C101.624 99.3208 101.533 99.2674 101.44 99.22C101.301 99.133 101.153 99.0593 101 99C100.924 98.9633 100.843 98.9364 100.76 98.92C100.151 98.7512 99.5113 98.7239 98.89 98.84C94.5167 98.7666 91.6033 98.7266 90.15 98.72C89.5506 98.7233 88.9571 98.8386 88.4 99.06C87.6571 99.5027 87.0054 100.083 86.48 100.77C83.68 104.717 80.91 108.683 78.17 112.67C77.8368 113.189 77.7019 113.81 77.79 114.42C77.7914 114.49 77.7682 114.559 77.7243 114.613C77.6805 114.668 77.6188 114.706 77.55 114.72C77.0083 114.812 76.5162 115.092 76.16 115.51C73.3267 119.563 70.5067 123.61 67.7 127.65C67.4488 128.137 67.3847 128.699 67.52 129.23C67.531 129.265 67.5338 129.301 67.5279 129.337C67.5221 129.373 67.5078 129.407 67.4864 129.436C67.4649 129.465 67.4369 129.489 67.4045 129.505C67.3721 129.522 67.3363 129.53 67.3 129.53C66.9886 129.546 66.6854 129.635 66.4145 129.79C66.1436 129.945 65.9126 130.16 65.74 130.42C62.96 134.42 60.19 138.42 57.47 142.28C57.2591 142.604 57.1469 142.983 57.1469 143.37C57.1469 143.757 57.2591 144.136 57.47 144.46L65.47 156.46C65.8507 156.885 66.2881 157.255 66.77 157.56C66.8277 157.599 66.8757 157.651 66.9104 157.712C66.945 157.773 66.9654 157.84 66.97 157.91C67.043 158.753 67.3948 159.549 67.97 160.17L69.81 163.07L75 170.89C75.4626 171.401 76.0239 171.812 76.65 172.1C76.7192 172.137 76.7776 172.192 76.8196 172.259C76.8616 172.325 76.8858 172.401 76.89 172.48V173.48C76.9006 173.606 76.9381 173.729 77 173.84L78.52 176.15C81.0733 179.923 83.5667 183.663 86 187.37C87.3 189.37 90.65 188.6 92.71 188.44L99.82 188.03C100.63 187.726 101.328 187.181 101.82 186.47L111.22 174.14L129 150.87L134.13 144.13L134.25 143.82C134.279 143.756 134.303 143.689 134.32 143.62V143.52C134.345 143.442 134.362 143.362 134.37 143.28C134.399 143.168 134.419 143.055 134.43 142.94C134.44 142.807 134.44 142.673 134.43 142.54C134.466 142.462 134.496 142.382 134.52 142.3ZM112.52 114.48L122.2 126.91C122.246 126.958 122.272 127.023 122.272 127.09C122.272 127.157 122.246 127.222 122.2 127.27C122.178 127.291 122.151 127.308 122.121 127.318C122.092 127.329 122.061 127.333 122.03 127.33L110 126.87C109.96 126.87 109.92 126.861 109.884 126.844C109.847 126.826 109.815 126.801 109.79 126.77L100.47 114.51C100.423 114.46 100.397 114.394 100.397 114.325C100.397 114.256 100.423 114.19 100.47 114.14C100.522 114.101 100.585 114.08 100.65 114.08L112.33 114.38C112.375 114.378 112.42 114.385 112.461 114.403C112.503 114.42 112.54 114.446 112.57 114.48H112.52ZM96.91 142.77C96.969 142.861 97.0004 142.967 97.0004 143.075C97.0004 143.183 96.969 143.289 96.91 143.38L87.81 155.71C87.7704 155.766 87.7196 155.814 87.661 155.851C87.6023 155.887 87.5368 155.911 87.4686 155.921C87.4003 155.932 87.3307 155.928 87.2639 155.91C87.1971 155.893 87.1345 155.862 87.08 155.82C87.0352 155.785 86.9948 155.745 86.96 155.7L78.58 143.63C78.5174 143.544 78.4837 143.441 78.4837 143.335C78.4837 143.229 78.5174 143.126 78.58 143.04L87.42 130.74C87.4987 130.628 87.6185 130.551 87.7533 130.527C87.8881 130.503 88.0271 130.532 88.14 130.61C88.1876 130.646 88.2282 130.69 88.26 130.74L96.91 142.77ZM89.25 128.2L93.86 121.77L98.07 115.91C98.1523 115.796 98.2756 115.719 98.4137 115.695C98.5518 115.671 98.6939 115.701 98.81 115.78C98.8549 115.815 98.8952 115.855 98.93 115.9L107.88 127.83C107.95 127.918 107.988 128.027 107.988 128.14C107.988 128.252 107.95 128.362 107.88 128.45L98.8 140.82C98.7474 140.889 98.6788 140.944 98.6 140.98C98.5219 141.033 98.4296 141.062 98.335 141.062C98.2405 141.062 98.1481 141.033 98.07 140.98C98.0261 140.951 97.9887 140.914 97.96 140.87L89.25 128.87C89.1746 128.775 89.1335 128.657 89.1335 128.535C89.1335 128.413 89.1746 128.295 89.25 128.2ZM88.8 157.74L98 145.34C98.0393 145.287 98.0888 145.243 98.1457 145.209C98.2025 145.176 98.2655 145.155 98.3309 145.146C98.3962 145.138 98.4626 145.143 98.526 145.16C98.5894 145.178 98.6486 145.209 98.7 145.25C98.7404 145.275 98.7746 145.31 98.8 145.35L107.49 157.35C107.551 157.436 107.584 157.539 107.584 157.645C107.584 157.751 107.551 157.854 107.49 157.94L98 170.44C97.9615 170.494 97.9125 170.539 97.856 170.573C97.7995 170.607 97.7367 170.63 97.6713 170.639C97.6059 170.649 97.5393 170.645 97.4755 170.628C97.4117 170.61 97.352 170.581 97.3 170.54L97.2 170.43L88.78 158.32C88.7226 158.233 88.6937 158.131 88.6973 158.027C88.7008 157.923 88.7368 157.823 88.8 157.74ZM99.86 143.45C99.7915 143.354 99.7548 143.238 99.7548 143.12C99.7548 143.002 99.7915 142.886 99.86 142.79L108.97 130.49C109.013 130.431 109.066 130.382 109.128 130.344C109.19 130.306 109.259 130.281 109.33 130.27C109.402 130.259 109.475 130.262 109.545 130.279C109.615 130.296 109.682 130.327 109.74 130.37C109.785 130.405 109.825 130.445 109.86 130.49L118.77 142.37C118.843 142.468 118.883 142.587 118.883 142.71C118.883 142.832 118.843 142.952 118.77 143.05L109.4 155.4C109.31 155.52 109.177 155.599 109.03 155.622C108.882 155.644 108.731 155.608 108.61 155.52C108.568 155.481 108.531 155.438 108.5 155.39L99.86 143.45ZM89.53 99.69C89.5789 99.6524 89.6384 99.6314 89.7 99.63L101.01 99.81C101.052 99.8086 101.093 99.818 101.13 99.8372C101.166 99.8565 101.198 99.885 101.22 99.92L110.86 112.29C110.887 112.316 110.908 112.347 110.922 112.382C110.937 112.416 110.944 112.453 110.944 112.49C110.944 112.527 110.937 112.564 110.922 112.598C110.908 112.633 110.887 112.664 110.86 112.69C110.802 112.711 110.738 112.711 110.68 112.69L99 112.45C98.9581 112.448 98.9173 112.436 98.8808 112.415C98.8444 112.394 98.8133 112.365 98.79 112.33L89.47 100.08C89.4265 100.02 89.4084 99.9457 89.4196 99.8726C89.4309 99.7995 89.4706 99.7339 89.53 99.69ZM78.64 113.58L87.19 101.35C87.2279 101.296 87.2761 101.25 87.3319 101.215C87.3877 101.179 87.4499 101.155 87.515 101.144C87.5801 101.133 87.6467 101.135 87.7111 101.15C87.7755 101.164 87.8363 101.192 87.89 101.23C87.9372 101.25 87.9761 101.285 88 101.33L97 113.33C97.0593 113.419 97.091 113.523 97.091 113.63C97.091 113.737 97.0593 113.841 97 113.93L92.46 120.29L88.22 126.24C88.14 126.348 88.0215 126.42 87.8891 126.443C87.7568 126.465 87.621 126.435 87.51 126.36C87.4652 126.325 87.4248 126.285 87.39 126.24L78.66 114.24C78.579 114.15 78.5324 114.035 78.5288 113.914C78.5251 113.793 78.5645 113.674 78.64 113.58ZM68.33 128.36L76.93 116.07C76.9641 116.02 77.0077 115.977 77.0584 115.944C77.109 115.911 77.1657 115.888 77.2251 115.877C77.2846 115.866 77.3456 115.867 77.4048 115.879C77.464 115.892 77.5201 115.916 77.57 115.95C77.6115 115.981 77.6485 116.018 77.68 116.06L86.4 128.15C86.4584 128.228 86.49 128.323 86.49 128.42C86.49 128.517 86.4584 128.612 86.4 128.69L77.55 141.07C77.516 141.12 77.4722 141.163 77.4213 141.196C77.3703 141.229 77.3132 141.251 77.2535 141.261C77.1937 141.272 77.1324 141.27 77.0734 141.256C77.0144 141.242 76.9588 141.216 76.91 141.18L76.8 141.07L68.33 128.88C68.2716 128.806 68.2399 128.714 68.2399 128.62C68.2399 128.526 68.2716 128.434 68.33 128.36ZM67 155.87C66.964 155.922 66.9181 155.966 66.8649 156.001C66.8117 156.035 66.7522 156.058 66.69 156.069C66.6277 156.08 66.5638 156.079 66.5021 156.066C66.4403 156.052 66.3818 156.026 66.33 155.99C66.2826 155.954 66.242 155.91 66.21 155.86L58 143.66C57.9445 143.581 57.9147 143.487 57.9147 143.39C57.9147 143.293 57.9445 143.199 58 143.12L66.57 130.87C66.6059 130.819 66.6514 130.776 66.7041 130.743C66.7568 130.71 66.8156 130.687 66.877 130.677C66.9384 130.667 67.0012 130.669 67.0618 130.683C67.1224 130.697 67.1796 130.723 67.23 130.76C67.2767 130.789 67.3174 130.826 67.35 130.87L75.79 143C75.8478 143.08 75.8789 143.176 75.8789 143.275C75.8789 143.374 75.8478 143.47 75.79 143.55L67 155.87ZM76.86 170.61C76.8204 170.665 76.7702 170.712 76.7123 170.747C76.6545 170.782 76.5902 170.806 76.5231 170.816C76.4561 170.826 76.3877 170.823 76.3219 170.807C76.2561 170.79 76.1943 170.761 76.14 170.72C76.0925 170.684 76.0518 170.64 76.02 170.59L67.95 158.47C67.8874 158.384 67.8537 158.281 67.8537 158.175C67.8537 158.069 67.8874 157.966 67.95 157.88L76.77 145.59C76.8097 145.533 76.8604 145.486 76.9191 145.449C76.9778 145.413 77.0432 145.389 77.1115 145.379C77.1797 145.368 77.2493 145.372 77.3161 145.389C77.3829 145.407 77.4455 145.438 77.5 145.48C77.5473 145.512 77.588 145.553 77.62 145.6L86 157.68C86.0611 157.766 86.094 157.869 86.094 157.975C86.094 158.081 86.0611 158.184 86 158.27L76.86 170.61ZM86 185.5C85.9518 185.462 85.9082 185.418 85.87 185.37L77.8 173.27C77.7419 173.181 77.711 173.076 77.711 172.97C77.711 172.863 77.7419 172.759 77.8 172.67L86.94 160.28C86.9796 160.225 87.0298 160.178 87.0877 160.143C87.1455 160.108 87.2099 160.084 87.2769 160.074C87.344 160.064 87.4124 160.067 87.4781 160.083C87.5439 160.1 87.6058 160.129 87.66 160.17C87.7071 160.202 87.7478 160.243 87.78 160.29L96.12 172.38C96.1865 172.466 96.2226 172.571 96.2226 172.68C96.2226 172.789 96.1865 172.894 96.12 172.98L86.72 185.39C86.6368 185.497 86.5158 185.568 86.3819 185.588C86.248 185.609 86.1113 185.577 86 185.5ZM110.12 174.36L100.32 187C100.3 187.031 100.271 187.057 100.238 187.075C100.205 187.092 100.168 187.101 100.13 187.1L88.34 187.76C88.2716 187.763 88.2046 187.74 88.1526 187.695C88.1007 187.651 88.0675 187.588 88.06 187.52C88.0582 187.458 88.0796 187.397 88.12 187.35L98.01 174.35C98.0316 174.316 98.0612 174.289 98.0961 174.27C98.131 174.25 98.1702 174.24 98.21 174.24L109.88 173.95C109.949 173.952 110.015 173.98 110.065 174.028C110.115 174.076 110.145 174.141 110.15 174.21C110.149 174.266 110.127 174.319 110.09 174.36H110.12ZM121.61 159.59L111.82 172.18C111.795 172.211 111.763 172.236 111.726 172.254C111.69 172.271 111.65 172.28 111.61 172.28L99.97 172.54C99.8991 172.54 99.8307 172.513 99.7788 172.465C99.7268 172.417 99.6951 172.351 99.69 172.28C99.6872 172.218 99.7087 172.157 99.75 172.11L109.67 159.11C109.698 159.079 109.732 159.054 109.769 159.037C109.807 159.02 109.848 159.01 109.89 159.01L121.41 159.13C121.48 159.133 121.546 159.162 121.594 159.212C121.643 159.263 121.67 159.33 121.67 159.4C121.671 159.437 121.664 159.473 121.648 159.506C121.632 159.539 121.609 159.568 121.58 159.59H121.61ZM133 144.85L123.25 157.39C123.22 157.427 123.182 157.456 123.138 157.475C123.095 157.494 123.047 157.503 123 157.5L111.59 157.32C111.549 157.321 111.509 157.314 111.471 157.299C111.433 157.284 111.399 157.261 111.371 157.232C111.343 157.203 111.321 157.168 111.307 157.13C111.293 157.091 111.287 157.051 111.29 157.01C111.29 156.945 111.311 156.882 111.35 156.83L121.21 143.94C121.243 143.901 121.285 143.869 121.331 143.846C121.378 143.824 121.428 143.812 121.48 143.81L132.77 144.36C132.825 144.364 132.878 144.382 132.924 144.414C132.969 144.445 133.005 144.488 133.029 144.537C133.052 144.587 133.062 144.643 133.057 144.698C133.052 144.753 133.032 144.805 133 144.85ZM133.56 141.85C133.54 141.869 133.517 141.884 133.491 141.892C133.465 141.901 133.437 141.904 133.41 141.9L120.87 141.23C120.834 141.231 120.798 141.223 120.766 141.205C120.734 141.187 120.708 141.161 120.69 141.13L111.36 128.85C111.314 128.803 111.289 128.74 111.289 128.675C111.289 128.61 111.314 128.547 111.36 128.5C111.381 128.479 111.406 128.464 111.434 128.455C111.462 128.446 111.491 128.445 111.52 128.45L123.69 128.97C123.727 128.973 123.762 128.984 123.793 129.003C123.825 129.022 123.851 129.049 123.87 129.08L133.56 141.51C133.59 141.529 133.615 141.555 133.634 141.586C133.652 141.616 133.664 141.65 133.668 141.685C133.672 141.721 133.668 141.757 133.656 141.79C133.644 141.824 133.625 141.855 133.6 141.88L133.56 141.85Z" fill="#2A4E63"/>
<path d="M98.8 112.34C98.8564 112.404 98.9352 112.443 99.02 112.45L110.63 112.75C110.695 112.752 110.759 112.73 110.81 112.69C110.836 112.665 110.857 112.635 110.872 112.601C110.886 112.568 110.893 112.531 110.893 112.495C110.893 112.459 110.886 112.423 110.872 112.389C110.857 112.355 110.836 112.325 110.81 112.3L101.18 99.92C101.155 99.8856 101.122 99.8576 101.083 99.8385C101.045 99.8194 101.003 99.8096 100.96 99.81L89.66 99.63C89.5949 99.6285 89.5312 99.6497 89.48 99.69C89.4293 99.7423 89.4009 99.8122 89.4009 99.885C89.4009 99.9578 89.4293 100.028 89.48 100.08L98.8 112.34Z" fill="white"/>
<path d="M100.5 114.14C100.453 114.19 100.427 114.256 100.427 114.325C100.427 114.394 100.453 114.46 100.5 114.51L109.82 126.77C109.844 126.801 109.874 126.825 109.909 126.843C109.943 126.86 109.981 126.869 110.02 126.87L122.08 127.33C122.136 127.344 122.194 127.344 122.25 127.33C122.298 127.278 122.324 127.21 122.324 127.14C122.324 127.07 122.298 127.002 122.25 126.95L112.57 114.53C112.544 114.499 112.512 114.474 112.476 114.457C112.44 114.44 112.4 114.431 112.36 114.43L100.68 114.13C100.62 114.115 100.558 114.118 100.5 114.14Z" fill="white"/>
<path d="M133.65 141.54L124 129.1C123.979 129.072 123.952 129.048 123.921 129.031C123.89 129.013 123.855 129.003 123.82 129L111.65 128.48C111.621 128.475 111.592 128.477 111.564 128.485C111.536 128.494 111.511 128.509 111.49 128.53C111.468 128.552 111.45 128.579 111.438 128.608C111.426 128.637 111.419 128.668 111.419 128.7C111.419 128.732 111.426 128.763 111.438 128.792C111.45 128.821 111.468 128.848 111.49 128.87L120.82 141.16C120.841 141.189 120.868 141.213 120.899 141.23C120.93 141.248 120.964 141.258 121 141.26L133.53 141.94C133.587 141.94 133.643 141.923 133.69 141.89C133.731 141.838 133.75 141.772 133.742 141.707C133.735 141.641 133.701 141.581 133.65 141.54Z" fill="white"/>
<path d="M108.62 155.51C108.678 155.555 108.745 155.588 108.816 155.607C108.886 155.625 108.961 155.63 109.033 155.62C109.106 155.609 109.176 155.585 109.239 155.547C109.302 155.509 109.357 155.459 109.4 155.4L118.77 143.05C118.843 142.952 118.883 142.833 118.883 142.71C118.883 142.588 118.843 142.468 118.77 142.37L109.86 130.49C109.829 130.449 109.792 130.411 109.75 130.38C109.691 130.335 109.624 130.302 109.552 130.283C109.48 130.264 109.405 130.26 109.332 130.27C109.258 130.28 109.188 130.305 109.124 130.343C109.06 130.38 109.004 130.43 108.96 130.49L99.86 142.79C99.7901 142.886 99.7524 143.001 99.7524 143.12C99.7524 143.239 99.7901 143.354 99.86 143.45L108.5 155.39C108.529 155.44 108.571 155.481 108.62 155.51Z" fill="white"/>
<path d="M97.2 170.43C97.2313 170.475 97.2683 170.515 97.31 170.55C97.417 170.627 97.5496 170.66 97.6801 170.641C97.8107 170.622 97.9289 170.554 98.01 170.45L107.46 158C107.523 157.913 107.558 157.808 107.558 157.7C107.558 157.592 107.523 157.487 107.46 157.4L98.79 145.4L98.68 145.29C98.6269 145.251 98.5666 145.223 98.5026 145.208C98.4386 145.192 98.3722 145.189 98.3072 145.2C98.2421 145.21 98.1797 145.233 98.1236 145.267C98.0674 145.302 98.0187 145.347 97.98 145.4L88.8 157.74C88.7397 157.825 88.7073 157.926 88.7073 158.03C88.7073 158.134 88.7397 158.235 88.8 158.32L97.2 170.43Z" fill="white"/>
<path d="M123.29 157.39L133 144.85C133.036 144.804 133.057 144.748 133.06 144.69C133.063 144.649 133.057 144.608 133.044 144.57C133.031 144.531 133.01 144.495 132.984 144.465C132.957 144.434 132.924 144.409 132.887 144.391C132.851 144.373 132.811 144.363 132.77 144.36L121.48 143.82C121.43 143.817 121.38 143.826 121.335 143.847C121.289 143.868 121.25 143.9 121.22 143.94L111.35 156.83C111.311 156.882 111.29 156.945 111.29 157.01C111.289 157.051 111.295 157.091 111.31 157.129C111.324 157.167 111.346 157.202 111.374 157.232C111.402 157.262 111.435 157.286 111.472 157.303C111.509 157.319 111.549 157.329 111.59 157.33L123 157.5C123.054 157.51 123.109 157.505 123.16 157.485C123.211 157.466 123.256 157.433 123.29 157.39Z" fill="white"/>
<path d="M76.8 141.06C76.8287 141.107 76.866 141.147 76.91 141.18C76.9588 141.216 77.0144 141.242 77.0734 141.256C77.1324 141.27 77.1937 141.272 77.2534 141.261C77.3132 141.251 77.3703 141.229 77.4213 141.196C77.4722 141.163 77.516 141.12 77.55 141.07L86.4 128.7C86.4584 128.622 86.49 128.527 86.49 128.43C86.49 128.333 86.4584 128.238 86.4 128.16L77.67 116.06C77.6445 116.02 77.6104 115.985 77.57 115.96C77.4701 115.888 77.3461 115.859 77.2246 115.877C77.1031 115.896 76.9937 115.962 76.92 116.06L68.33 128.36C68.2762 128.436 68.2473 128.527 68.2473 128.62C68.2473 128.713 68.2762 128.804 68.33 128.88L76.8 141.06Z" fill="#E5F6FF"/>
<path d="M75.79 143L67.4 130.9C67.3708 130.85 67.3295 130.809 67.28 130.78C67.229 130.744 67.1713 130.718 67.1103 130.705C67.0493 130.692 66.9863 130.69 66.9248 130.701C66.8634 130.713 66.8048 130.736 66.7524 130.77C66.7001 130.804 66.6551 130.848 66.62 130.9L58.05 143.14C57.9958 143.22 57.9669 143.314 57.9669 143.41C57.9669 143.506 57.9958 143.6 58.05 143.68L66.19 155.88C66.2218 155.93 66.2624 155.974 66.31 156.01C66.3618 156.046 66.4203 156.072 66.4821 156.086C66.5438 156.099 66.6077 156.1 66.6699 156.089C66.7322 156.078 66.7917 156.055 66.8449 156.021C66.8981 155.986 66.944 155.942 66.98 155.89L75.8 143.55C75.8549 143.468 75.8834 143.372 75.8816 143.273C75.8798 143.175 75.8478 143.08 75.79 143Z" fill="#E5F6FF"/>
<path d="M88.15 130.62C88.0957 130.578 88.0334 130.548 87.967 130.532C87.9006 130.515 87.8315 130.513 87.764 130.524C87.6965 130.535 87.632 130.56 87.5746 130.597C87.5171 130.634 87.4679 130.683 87.43 130.74L78.59 143C78.5289 143.086 78.496 143.189 78.496 143.295C78.496 143.401 78.5289 143.504 78.59 143.59L87 155.7C87.0292 155.749 87.0705 155.791 87.12 155.82C87.1751 155.861 87.2377 155.891 87.3043 155.907C87.3708 155.924 87.4401 155.927 87.5079 155.917C87.5758 155.907 87.6409 155.883 87.6997 155.848C87.7584 155.812 87.8095 155.765 87.85 155.71L96.95 143.38C97.0128 143.291 97.0466 143.184 97.0466 143.075C97.0466 142.966 97.0128 142.859 96.95 142.77L88.31 130.77C88.2747 130.704 88.2184 130.651 88.15 130.62Z" fill="#E5F6FF"/>
<path d="M85.94 157.67L77.6 145.6C77.5646 145.549 77.5206 145.505 77.47 145.47C77.3583 145.391 77.2201 145.36 77.0854 145.382C76.9507 145.405 76.8302 145.479 76.75 145.59L67.93 157.88C67.8674 157.966 67.8337 158.069 67.8337 158.175C67.8337 158.281 67.8674 158.384 67.93 158.47L76 170.59C76.0318 170.64 76.0725 170.684 76.12 170.72C76.1743 170.761 76.2361 170.79 76.3019 170.807C76.3676 170.823 76.4361 170.826 76.5031 170.816C76.5702 170.806 76.6345 170.782 76.6923 170.747C76.7502 170.712 76.8004 170.665 76.84 170.61L85.94 158.28C86.0028 158.191 86.0366 158.084 86.0366 157.975C86.0366 157.866 86.0028 157.759 85.94 157.67Z" fill="#E5F6FF"/>
<path d="M96.11 172.37L87.77 160.29L87.65 160.17C87.5379 160.09 87.399 160.056 87.2627 160.077C87.1264 160.097 87.0035 160.17 86.92 160.28L77.79 172.67C77.7266 172.757 77.6924 172.862 77.6924 172.97C77.6924 173.078 77.7266 173.183 77.79 173.27L85.85 185.37L85.97 185.5C86.0245 185.541 86.0866 185.572 86.1528 185.589C86.219 185.607 86.288 185.611 86.3558 185.602C86.4236 185.592 86.4889 185.57 86.548 185.535C86.6071 185.5 86.6587 185.455 86.7 185.4L96.1 173C96.1689 172.91 96.207 172.8 96.2088 172.687C96.2106 172.573 96.176 172.462 96.11 172.37Z" fill="#E5F6FF"/>
<path d="M121.59 159.59C121.606 159.538 121.606 159.482 121.59 159.43C121.59 159.36 121.563 159.293 121.514 159.243C121.466 159.192 121.4 159.163 121.33 159.16L109.86 159C109.818 159 109.777 159.009 109.739 159.026C109.701 159.043 109.667 159.069 109.64 159.1L99.72 172.1C99.6811 172.152 99.66 172.215 99.66 172.28C99.6651 172.351 99.6968 172.417 99.7488 172.465C99.8007 172.513 99.8691 172.54 99.94 172.54L111.58 172.28C111.62 172.279 111.66 172.27 111.696 172.253C111.732 172.236 111.764 172.211 111.79 172.18L121.59 159.59Z" fill="white"/>
<path d="M109.88 173.94L98.21 174.23C98.1713 174.231 98.1333 174.24 98.0987 174.257C98.0641 174.275 98.0338 174.3 98.01 174.33L88.12 187.33C88.1003 187.353 88.0857 187.38 88.0771 187.41C88.0685 187.439 88.0661 187.47 88.07 187.5C88.0751 187.567 88.1061 187.63 88.1565 187.675C88.2069 187.719 88.2727 187.743 88.34 187.74L100.13 187.08C100.167 187.08 100.204 187.071 100.237 187.054C100.27 187.036 100.299 187.011 100.32 186.98L110.09 174.39C110.102 174.365 110.109 174.338 110.109 174.31C110.109 174.282 110.102 174.255 110.09 174.23C110.099 174.164 110.082 174.097 110.043 174.043C110.004 173.989 109.945 173.952 109.88 173.94Z" fill="white"/>
<path d="M98.81 115.78C98.6967 115.701 98.557 115.669 98.4206 115.692C98.2843 115.714 98.162 115.789 98.08 115.9L93.87 121.76L89.25 128.2C89.1849 128.29 89.1499 128.399 89.1499 128.51C89.1499 128.621 89.1849 128.73 89.25 128.82L97.94 140.82C97.9748 140.865 98.0152 140.905 98.06 140.94C98.1399 140.989 98.2315 141.014 98.325 141.014C98.4185 141.014 98.5102 140.989 98.59 140.94C98.6708 140.907 98.7403 140.852 98.79 140.78L107.88 128.41C107.948 128.321 107.985 128.212 107.985 128.1C107.985 127.988 107.948 127.879 107.88 127.79L98.93 115.9C98.8952 115.855 98.8549 115.815 98.81 115.78Z" fill="white"/>
<path d="M78.65 114.17L87.38 126.17C87.4126 126.214 87.4534 126.251 87.5 126.28C87.6094 126.355 87.7436 126.384 87.8743 126.362C88.005 126.339 88.1218 126.267 88.2 126.16L92.46 120.16L97 113.9C97.0606 113.812 97.0931 113.707 97.0931 113.6C97.0931 113.493 97.0606 113.388 97 113.3L88 101.3L87.88 101.18C87.7694 101.106 87.6343 101.078 87.5036 101.103C87.3728 101.127 87.2567 101.201 87.18 101.31L78.63 113.54C78.5711 113.625 78.5395 113.726 78.5395 113.83C78.5395 113.934 78.5711 114.035 78.63 114.12L78.65 114.17Z" fill="white"/>
</svg>
