<svg width="405" height="92" viewBox="0 0 405 92" fill="none" xmlns="http://www.w3.org/2000/svg">
<path d="M156.68 58.35C157.166 58.3367 157.65 58.4239 158.101 58.6063C158.552 58.7887 158.96 59.0624 159.3 59.41C160.45 60.6 160.59 62.25 159.85 64.05L160.45 64.32C161.547 62.4944 161.989 60.3498 161.703 58.2394C161.418 56.129 160.422 54.1787 158.88 52.71C158.096 51.8462 157.141 51.1548 156.075 50.6797C155.009 50.2046 153.857 49.9561 152.69 49.95C146.59 49.95 140.34 56.1 136.16 56.1C135.708 56.1098 135.259 56.0261 134.84 55.854C134.422 55.6819 134.044 55.4252 133.73 55.1C131.73 53.1 132.73 50.1 135.73 47.16C137.412 45.4084 139.543 44.1526 141.89 43.53C143.54 43.8228 145.214 43.9634 146.89 43.95C155.66 43.95 160.62 40.82 160.62 35.18C160.62 30.72 157.4 27.83 151.52 26.87C158.64 26.04 160.43 23.29 160.43 20.12C160.43 16.54 157.43 14.43 152.72 14.43C151.782 14.4407 150.847 14.5175 149.92 14.66V15.26C150.857 15.0934 151.808 15.0164 152.76 15.03C157.08 15.03 159.83 16.91 159.83 20.12C159.83 23.33 157.83 26.5 146.83 26.5C137.88 26.5 132.83 29.67 132.83 35.18C132.823 36.5552 133.192 37.906 133.897 39.0868C134.602 40.2676 135.616 41.2334 136.83 41.88L137.43 42.25C138.422 42.6828 139.453 43.0178 140.51 43.25C138.621 43.9509 136.913 45.0647 135.51 46.51C130.46 51.51 130.23 57.94 134.41 62.07C135.101 62.7983 135.934 63.3771 136.858 63.771C137.781 64.1649 138.776 64.3653 139.78 64.36C145.71 64.41 152.28 58.35 156.68 58.35ZM142.09 35.08C142.09 29.99 143.74 27.14 146.68 27.14C149.62 27.14 151.26 29.99 151.26 35.08C151.26 40.41 149.61 43.39 146.68 43.39C143.75 43.39 142.09 40.41 142.09 35.08Z" fill="#2A4E63"/>
<path d="M192.07 45.68H191.52C190.88 52.38 186.79 55.14 182.16 55.14C176.28 55.14 172.84 51.61 172.84 41.46H191.66C191.94 30.46 185.37 25.94 177.75 25.94C168.57 25.94 162.14 32.1 162.14 41.32C162.14 50.54 169.08 56.79 179.14 56.79C186 56.79 191.38 53.4 192.07 45.68ZM177.7 26.54C182.2 26.54 181.88 35.95 181.88 40.91H172.88C172.89 31.64 174.26 26.54 177.7 26.54Z" fill="#2A4E63"/>
<path d="M210.2 29.34C212.59 29.34 213.69 30.99 213.69 34.48V48.25C213.693 50.5141 214.593 52.6848 216.194 54.2857C217.795 55.8867 219.966 56.7873 222.23 56.79H223.79V37.05C223.79 30.72 220.34 26.54 214.06 26.54C208.18 26.54 205.24 30.22 204.06 35.68C204.063 34.5577 203.844 33.4461 203.415 32.4087C202.987 31.3714 202.358 30.4289 201.565 29.6354C200.771 28.8419 199.829 28.2129 198.791 27.7847C197.754 27.3564 196.642 27.1373 195.52 27.14H194V48.25C194.003 50.5141 194.903 52.6848 196.504 54.2857C198.105 55.8867 200.276 56.7873 202.54 56.79H204.1V40C204.42 34.07 206.48 29.34 210.2 29.34Z" fill="#2A4E63"/>
<path d="M255.32 45.68H254.77C254.13 52.38 250.04 55.14 245.41 55.14C239.53 55.14 236.09 51.61 236.09 41.46H254.91C255.19 30.46 248.62 25.94 241 25.94C231.82 25.94 225.39 32.1 225.39 41.32C225.39 50.54 232.33 56.79 242.39 56.79C249.26 56.79 254.63 53.4 255.32 45.68ZM241 26.54C245.5 26.54 245.18 35.95 245.18 40.91H236.18C236.14 31.64 237.51 26.54 241 26.54Z" fill="#2A4E63"/>
<path d="M278.23 27.14V26.54C271.57 26.54 268.49 30.54 267.3 36.04C267.297 33.6786 266.357 31.4149 264.687 29.7461C263.016 28.0773 260.751 27.14 258.39 27.14H257.2V47.89C257.205 50.2505 258.146 52.5127 259.816 54.1809C261.486 55.8491 263.749 56.7873 266.11 56.79H267.3V42.51C267.3 34.21 269.59 27.14 278.23 27.14Z" fill="#2A4E63"/>
<path d="M293 25.94C286.43 25.94 282 28.51 280.19 33.2H280.83C281.52 31.4226 282.74 29.9008 284.326 28.8416C285.911 27.7824 287.784 27.2371 289.69 27.28C294.28 27.28 296.12 29.85 296.12 35.54V39.54C284.51 40.6 277.34 44.18 277.34 50.29C277.34 53.54 279.46 56.8 284.55 56.8C290.47 56.8 295.07 53.73 296.35 46.06V46.93C296.345 49.5406 297.376 52.0466 299.217 53.8973C301.059 55.748 303.559 56.7921 306.17 56.8V38.66C306.18 29.85 300.76 25.94 293 25.94ZM287.45 48.3C287.45 43.66 291.02 40.82 296.12 39.99V41.37C296.12 49.95 293.12 52.53 290.79 52.53C288.74 52.53 287.41 51.1 287.41 48.3H287.45Z" fill="#2A4E63"/>
<path d="M329.49 45.73H328.9C328.72 52.25 325.41 54.27 323.39 54.27C321.37 54.27 320.54 53.03 320.54 50.09V27.18H328.9V26.59H320.54C320.543 25.5768 320.345 24.573 319.958 23.6364C319.572 22.6998 319.004 21.8488 318.288 21.1324C317.571 20.4159 316.72 19.8481 315.784 19.4616C314.847 19.075 313.843 18.8774 312.83 18.88H310.44V26.59H306.44V27.18H310.44V47.06C310.44 54.63 315.49 56.79 319.99 56.79C324.49 56.79 329.49 53.77 329.49 45.73Z" fill="#2A4E63"/>
<path d="M359 45.68H358.45C357.81 52.38 353.72 55.14 349.09 55.14C343.21 55.14 339.77 51.61 339.77 41.46H358.59C358.87 30.46 352.3 25.94 344.68 25.94C335.5 25.94 329.07 32.1 329.07 41.32C329.07 50.54 336.01 56.79 346.07 56.79C352.9 56.79 358.28 53.4 359 45.68ZM344.6 26.54C349.09 26.54 348.77 35.95 348.77 40.91H339.77C339.78 31.64 341.15 26.54 344.6 26.54Z" fill="#2A4E63"/>
<path d="M167.19 63.76H170.52C171.17 63.7523 171.816 63.8572 172.43 64.07C172.987 64.2604 173.503 64.5557 173.95 64.94C174.377 65.3042 174.719 65.7584 174.95 66.27C175.315 67.056 175.415 67.9393 175.234 68.7869C175.054 69.6345 174.603 70.4006 173.95 70.97C173.503 71.3511 172.987 71.643 172.43 71.83C171.816 72.0428 171.17 72.1476 170.52 72.14H168.64V77.67H167.19V63.76ZM170.52 70.76C171.387 70.8041 172.24 70.5223 172.91 69.97C173.214 69.7181 173.457 69.3994 173.618 69.0387C173.779 68.6779 173.855 68.2848 173.84 67.89C173.855 67.498 173.779 67.1079 173.618 66.7504C173.456 66.3928 173.214 66.0778 172.91 65.83C172.233 65.2924 171.384 65.0188 170.52 65.06H168.64V70.76H170.52Z" fill="#2A4E63"/>
<path d="M188.37 63.33H188.79L194.08 77.67H192.48L191.17 74H185.89L184.59 77.67H183.08L188.37 63.33ZM190.7 72.66L188.54 66.66L186.38 72.66H190.7Z" fill="#2A4E63"/>
<path d="M206.14 77.87C205.223 77.8774 204.321 77.6465 203.52 77.2C202.699 76.7343 202.01 76.0665 201.52 75.26L202.63 74.35C202.973 74.9854 203.475 75.5211 204.086 75.9049C204.698 76.2886 205.399 76.5075 206.12 76.54C206.847 76.5844 207.563 76.3482 208.12 75.88C208.371 75.661 208.57 75.3881 208.702 75.0817C208.834 74.7753 208.894 74.4431 208.88 74.11C208.882 73.805 208.823 73.5028 208.706 73.2211C208.589 72.9394 208.417 72.684 208.2 72.47C207.57 71.9024 206.832 71.4672 206.03 71.19C205.001 70.8537 204.067 70.2739 203.31 69.5C202.746 68.8565 202.443 68.0255 202.46 67.17C202.452 66.667 202.544 66.1673 202.73 65.7C202.902 65.2686 203.161 64.8772 203.49 64.55C203.833 64.2279 204.238 63.9794 204.68 63.82C205.182 63.6341 205.715 63.5426 206.25 63.55C207.029 63.5514 207.797 63.7446 208.484 64.1126C209.171 64.4806 209.757 65.012 210.19 65.66L209.06 66.57C208.708 66.06 208.256 65.6277 207.73 65.3C207.272 65.032 206.75 64.8937 206.22 64.9C205.606 64.8681 205.004 65.076 204.54 65.48C204.33 65.6795 204.165 65.9224 204.058 66.1918C203.951 66.4611 203.904 66.7505 203.92 67.04C203.913 67.3313 203.964 67.6212 204.071 67.8925C204.177 68.1638 204.337 68.4111 204.54 68.62C205.153 69.1705 205.871 69.5922 206.65 69.86C207.703 70.2097 208.659 70.8024 209.44 71.59C210.028 72.2494 210.346 73.1065 210.33 73.99C210.337 74.5324 210.232 75.0705 210.02 75.57C209.817 76.0345 209.517 76.4504 209.14 76.79C208.754 77.1422 208.302 77.4141 207.81 77.59C207.275 77.7824 206.709 77.8772 206.14 77.87Z" fill="#2A4E63"/>
<path d="M222.81 77.87C221.893 77.8774 220.991 77.6465 220.19 77.2C219.369 76.7343 218.681 76.0665 218.19 75.26L219.3 74.35C219.643 74.9854 220.145 75.5211 220.756 75.9049C221.368 76.2886 222.069 76.5075 222.79 76.54C223.516 76.5814 224.231 76.3455 224.79 75.88C225.039 75.6591 225.235 75.3857 225.365 75.0795C225.494 74.7734 225.554 74.4422 225.54 74.11C225.542 73.805 225.483 73.5028 225.366 73.2211C225.249 72.9394 225.077 72.684 224.86 72.47C224.23 71.9024 223.492 71.4672 222.69 71.19C221.671 70.8494 220.749 70.2699 220 69.5C219.436 68.8565 219.133 68.0255 219.15 67.17C219.142 66.667 219.234 66.1673 219.42 65.7C219.592 65.2686 219.851 64.8772 220.18 64.55C220.523 64.2279 220.928 63.9794 221.37 63.82C221.872 63.6341 222.405 63.5426 222.94 63.55C223.719 63.5514 224.487 63.7446 225.174 64.1126C225.861 64.4806 226.447 65.012 226.88 65.66L225.75 66.57C225.398 66.06 224.946 65.6277 224.42 65.3C223.962 65.032 223.44 64.8937 222.91 64.9C222.296 64.8681 221.694 65.076 221.23 65.48C221.02 65.6795 220.855 65.9224 220.748 66.1918C220.641 66.4611 220.594 66.7505 220.61 67.04C220.603 67.3313 220.654 67.6212 220.761 67.8925C220.867 68.1638 221.027 68.4111 221.23 68.62C221.843 69.1705 222.561 69.5922 223.34 69.86C224.393 70.2097 225.349 70.8024 226.13 71.59C226.713 72.255 227.024 73.1157 227 74C227.007 74.5424 226.902 75.0805 226.69 75.58C226.487 76.0445 226.187 76.4604 225.81 76.8C225.424 77.1522 224.972 77.4241 224.48 77.6C223.944 77.789 223.378 77.8804 222.81 77.87Z" fill="#2A4E63"/>
<path d="M234.89 63.76H236.43L240 74.41L243.88 63.76H244.29L248.2 74.24L251.69 63.76H253.15L248.41 78.09H248.09L244 67.18L240 78.09H239.58L234.89 63.76Z" fill="#2A4E63"/>
<path d="M267.94 77.87C267.011 77.8781 266.091 77.6907 265.24 77.32C264.409 76.9612 263.658 76.4411 263.03 75.79C262.395 75.1241 261.887 74.3481 261.53 73.5C260.797 71.7156 260.797 69.7143 261.53 67.93C261.885 67.0837 262.393 66.3106 263.03 65.65C263.653 64.9927 264.405 64.4717 265.24 64.12C266.089 63.7444 267.007 63.5504 267.935 63.5504C268.863 63.5504 269.781 63.7444 270.63 64.12C271.465 64.4717 272.217 64.9927 272.84 65.65C273.48 66.3041 273.989 67.0746 274.34 67.92C275.073 69.7043 275.073 71.7057 274.34 73.49C273.632 75.1873 272.306 76.5525 270.63 77.31C269.782 77.683 268.866 77.8738 267.94 77.87ZM267.94 76.45C268.673 76.4539 269.399 76.304 270.07 76.01C270.72 75.7292 271.306 75.3173 271.79 74.8C272.281 74.2762 272.665 73.6613 272.92 72.99C273.48 71.5215 273.48 69.8984 272.92 68.43C272.663 67.7598 272.279 67.1453 271.79 66.62C271.303 66.1058 270.718 65.6944 270.07 65.41C269.394 65.1264 268.668 64.9804 267.935 64.9804C267.202 64.9804 266.476 65.1264 265.8 65.41C265.156 65.6969 264.575 66.1081 264.09 66.62C263.601 67.1474 263.215 67.7612 262.95 68.43C262.403 69.9008 262.403 71.5192 262.95 72.99C263.212 73.66 263.599 74.2742 264.09 74.8C264.583 75.326 265.18 75.7441 265.842 76.0281C266.505 76.3121 267.219 76.4557 267.94 76.45Z" fill="#2A4E63"/>
<path d="M284 63.76H287.34C287.985 63.7557 288.626 63.8536 289.24 64.05C289.8 64.2307 290.317 64.5233 290.76 64.91C291.184 65.2652 291.526 65.7089 291.76 66.21C292.004 66.7183 292.128 67.2762 292.12 67.84C292.123 68.3107 292.042 68.7781 291.88 69.22C291.731 69.6326 291.514 70.0177 291.24 70.36C290.959 70.7025 290.621 70.9935 290.24 71.22C289.849 71.4578 289.429 71.6428 288.99 71.77L292.99 77.67H291.25L287.39 71.94H285.51V77.67H284V63.76ZM287.34 70.58C288.199 70.6192 289.044 70.3575 289.73 69.84C290.027 69.6 290.264 69.2946 290.424 68.9477C290.584 68.6008 290.661 68.2217 290.65 67.84C290.667 67.4576 290.592 67.0767 290.432 66.7289C290.272 66.3811 290.031 66.0764 289.73 65.84C289.044 65.3226 288.199 65.0609 287.34 65.1H285.46V70.58H287.34Z" fill="#2A4E63"/>
<path d="M301.88 63.76H306.43C307.433 63.7499 308.429 63.9227 309.37 64.27C310.243 64.5955 311.042 65.0918 311.72 65.73C312.389 66.3785 312.919 67.1561 313.278 68.0156C313.637 68.875 313.818 69.7985 313.81 70.73C313.822 71.6891 313.632 72.64 313.25 73.52C312.894 74.3465 312.374 75.0918 311.72 75.71C311.039 76.3425 310.241 76.8351 309.37 77.16C308.434 77.5269 307.436 77.7102 306.43 77.7H301.88V63.76ZM306.41 76.32C307.212 76.3316 308.009 76.1925 308.76 75.91C309.444 75.6526 310.068 75.2594 310.596 74.7542C311.123 74.2489 311.543 73.642 311.83 72.97C312.128 72.2507 312.278 71.4786 312.27 70.7C312.277 69.9345 312.127 69.1756 311.83 68.47C311.549 67.7931 311.132 67.1815 310.604 66.6738C310.075 66.1661 309.448 65.7733 308.76 65.52C308.01 65.2343 307.213 65.0919 306.41 65.1H303.33V76.32H306.41Z" fill="#2A4E63"/>
<path d="M326.28 65.1H321.71V63.76H332.3V65.1H327.74V77.67H326.28V65.1Z" fill="#2A4E63"/>
<path d="M347.14 77.87C346.211 77.8781 345.291 77.6907 344.44 77.32C343.608 76.9636 342.856 76.4432 342.23 75.79C341.595 75.1242 341.087 74.3482 340.73 73.5C339.997 71.7157 339.997 69.7144 340.73 67.93C341.085 67.0837 341.593 66.3106 342.23 65.65C343.185 64.6437 344.428 63.9568 345.788 63.683C347.148 63.4092 348.56 63.5618 349.83 64.12C350.665 64.4718 351.417 64.9927 352.04 65.65C352.677 66.3069 353.185 67.0767 353.54 67.92C354.273 69.7044 354.273 71.7057 353.54 73.49C353.185 74.3334 352.677 75.1032 352.04 75.76C351.407 76.411 350.658 76.9369 349.83 77.31C348.982 77.6831 348.066 77.8738 347.14 77.87ZM347.14 76.45C347.873 76.4539 348.599 76.3041 349.27 76.01C349.924 75.7305 350.513 75.3185 351 74.8C351.488 74.2738 351.872 73.6596 352.13 72.99C352.69 71.5216 352.69 69.8985 352.13 68.43C351.869 67.7618 351.486 67.148 351 66.62C350.513 66.1059 349.928 65.6944 349.28 65.41C348.604 65.1265 347.878 64.9804 347.145 64.9804C346.412 64.9804 345.686 65.1265 345.01 65.41C344.366 65.697 343.785 66.1082 343.3 66.62C342.811 67.1475 342.424 67.7612 342.16 68.43C341.613 69.9008 341.613 71.5193 342.16 72.99C342.422 73.66 342.809 74.2742 343.3 74.8C343.793 75.326 344.39 75.7442 345.052 76.0281C345.715 76.3121 346.429 76.4558 347.15 76.45H347.14Z" fill="#2A4E63"/>
<path d="M363.83 77.78C363.694 77.7821 363.56 77.7566 363.434 77.7051C363.309 77.6535 363.195 77.5769 363.1 77.48C363.005 77.3802 362.93 77.2626 362.88 77.1339C362.831 77.0052 362.807 76.8679 362.81 76.73C362.805 76.5934 362.828 76.4572 362.878 76.33C362.928 76.2027 363.004 76.087 363.1 75.99C363.197 75.8906 363.314 75.8126 363.443 75.7609C363.573 75.7092 363.711 75.6851 363.85 75.69C363.984 75.6892 364.117 75.7154 364.24 75.7669C364.364 75.8185 364.476 75.8943 364.57 75.99C364.666 76.087 364.742 76.2027 364.792 76.33C364.842 76.4572 364.865 76.5934 364.86 76.73C364.863 76.8679 364.839 77.0052 364.79 77.1339C364.74 77.2626 364.665 77.3802 364.57 77.48C364.474 77.5782 364.359 77.6555 364.231 77.7071C364.104 77.7587 363.967 77.7835 363.83 77.78Z" fill="#2A4E63"/>
<path d="M374.41 63.33H374.83L381 72.08L387.09 63.33H387.49V77.67H386.05V67.26L381.17 74.26H380.75L375.87 67.39V77.69H374.41V63.33Z" fill="#2A4E63"/>
<path d="M397.45 63.76H404.62V65.1H398.91V69.78H403.28V71.13H398.91V76.32H404.73V77.67H397.45V63.76Z" fill="#2A4E63"/>
<path d="M119.83 48.71L90.83 4.05998C90.3834 3.30415 89.7123 2.7064 88.91 2.34998L81.85 1.40999C79.85 1.08999 76.53 0.0699854 75.08 1.96999C72.3667 5.48332 69.61 9.01331 66.81 12.56L68.07 12.48L74.74 3.93999C74.7904 3.87368 74.8554 3.81992 74.93 3.7829C75.0046 3.74589 75.0867 3.72663 75.17 3.72663C75.2533 3.72663 75.3354 3.74589 75.41 3.7829C75.4846 3.81992 75.5496 3.87368 75.6 3.93999L84 17.07C84.0657 17.1581 84.1013 17.2651 84.1013 17.375C84.1013 17.4849 84.0657 17.5919 84 17.68L81.88 20.29L81.97 23.29L84.97 19.64L85.08 19.54C85.1914 19.4686 85.3267 19.4442 85.456 19.4724C85.5854 19.5005 85.6983 19.5787 85.77 19.69L94.26 32.84C94.3141 32.9313 94.3384 33.0372 94.3294 33.143C94.3204 33.2487 94.2787 33.3491 94.21 33.43L84.65 44.78L84.53 44.87C84.4752 44.9067 84.4136 44.932 84.3489 44.9443C84.2841 44.9566 84.2175 44.9558 84.1531 44.9418C84.0887 44.9278 84.0277 44.9009 83.9739 44.8628C83.9201 44.8247 83.8746 44.7761 83.84 44.72L82.59 42.72L82.81 50.01L83.48 49.22C83.5153 49.1814 83.5557 49.1477 83.6 49.12C83.6806 49.0683 83.7743 49.0408 83.87 49.0408C83.9657 49.0408 84.0594 49.0683 84.14 49.12C84.2161 49.1614 84.2786 49.2239 84.32 49.3L92.45 62.3C92.514 62.3916 92.544 62.5026 92.5348 62.614C92.5257 62.7253 92.478 62.83 92.4 62.91L83.51 73.06L83.6 76.16C83.6002 76.223 83.5766 76.2837 83.534 76.33C83.4913 76.3764 83.4328 76.405 83.37 76.41L81.76 76.46H80.47C80.4717 76.4933 80.4717 76.5267 80.47 76.56L70.62 87.82L70.49 87.92C70.433 87.954 70.3698 87.9764 70.3041 87.9858C70.2384 87.9952 70.1715 87.9914 70.1073 87.9746C70.043 87.9579 69.9828 87.9285 69.93 87.8882C69.8773 87.8479 69.8331 87.7975 69.8 87.74L63.25 76.67H62.25C64.51 80.55 66.7933 84.41 69.1 88.25C69.5797 88.9728 70.1862 89.6029 70.89 90.11C71.4305 90.3684 72.0131 90.5276 72.61 90.58C74.07 90.68 76.97 90.86 81.33 91.11C81.939 91.2808 82.5799 91.3048 83.2 91.18C83.2856 91.1708 83.3696 91.1507 83.45 91.12C83.6175 91.0721 83.7813 91.012 83.94 90.94C84.04 90.94 84.13 90.84 84.23 90.79C84.3367 90.7339 84.4372 90.6669 84.53 90.59L120 50.93L120.74 50.09L119.83 48.71ZM109.98 34.71L118.75 47.95C118.787 47.9986 118.805 48.0591 118.8 48.12C118.8 48.1602 118.792 48.2001 118.776 48.2372C118.761 48.2742 118.738 48.3077 118.709 48.3357C118.68 48.3637 118.645 48.3856 118.608 48.4001C118.57 48.4146 118.53 48.4213 118.49 48.42L107.19 48.11C107.141 48.1056 107.093 48.0909 107.05 48.0667C107.007 48.0426 106.969 48.0096 106.94 47.97L98.08 34.37C98.0396 34.315 98.0186 34.2482 98.02 34.18C98.0276 34.0987 98.066 34.0233 98.1274 33.9694C98.1887 33.9155 98.2684 33.8871 98.35 33.89L109.74 34.58C109.787 34.574 109.835 34.5789 109.881 34.5946C109.926 34.6102 109.967 34.636 110 34.67L109.98 34.71ZM86.06 15.9L77.18 2.22999C77.1687 2.20307 77.1629 2.17417 77.1629 2.14498C77.1629 2.11579 77.1687 2.0869 77.18 2.05998C77.1836 2.02608 77.1941 1.99328 77.2109 1.96359C77.2277 1.93391 77.2503 1.90796 77.2775 1.88736C77.3047 1.86675 77.3357 1.85192 77.3689 1.84377C77.402 1.83563 77.4364 1.83433 77.47 1.83998L89.17 3.37998C89.2082 3.38578 89.2449 3.39944 89.2776 3.42009C89.3103 3.44074 89.3383 3.46794 89.36 3.49998L98.15 16.79C98.1648 16.8457 98.1648 16.9043 98.15 16.96C98.14 17.028 98.1045 17.0898 98.0506 17.1325C97.9967 17.1752 97.9285 17.1958 97.86 17.19L86.24 16C86.2013 15.9919 86.165 15.975 86.1338 15.9508C86.1026 15.9265 86.0774 15.8955 86.06 15.86V15.9ZM87.59 18.25C87.5531 18.2013 87.5353 18.1409 87.54 18.08C87.55 18.0093 87.5866 17.945 87.6423 17.9004C87.6981 17.8558 87.7688 17.8342 87.84 17.84L99.43 18.97C99.4714 18.9743 99.5115 18.9872 99.5476 19.0079C99.5838 19.0285 99.6152 19.0565 99.64 19.09L108.45 32.39C108.466 32.4421 108.466 32.4979 108.45 32.55C108.445 32.6198 108.413 32.685 108.361 32.7316C108.308 32.7782 108.24 32.8028 108.17 32.8L96.72 32C96.6764 31.9993 96.6335 31.988 96.5952 31.9671C96.5569 31.9462 96.5242 31.9163 96.5 31.88L87.59 18.25ZM85.51 47.5C85.4514 47.3976 85.4248 47.28 85.4337 47.1623C85.4426 47.0447 85.4866 46.9324 85.56 46.84L95.08 35.58L95.21 35.48C95.3352 35.3996 95.4868 35.3713 95.6326 35.4012C95.7783 35.4311 95.9066 35.5168 95.99 35.64L104.39 48.64C104.457 48.742 104.488 48.8638 104.477 48.9855C104.466 49.1072 104.414 49.2216 104.33 49.31L94.56 60.49C94.527 60.5309 94.4862 60.5649 94.44 60.59C94.3136 60.6694 94.1611 60.6961 94.0153 60.6643C93.8694 60.6325 93.7419 60.5448 93.66 60.42L85.51 47.5ZM94.51 78.5L83.97 90.11C83.9437 90.1421 83.9098 90.1671 83.8714 90.1828C83.833 90.1985 83.7913 90.2044 83.75 90.2L72.46 89.53C72.3967 89.5281 72.3362 89.5032 72.29 89.46C72.2637 89.4348 72.2427 89.4045 72.2284 89.371C72.2141 89.3375 72.2067 89.3014 72.2067 89.265C72.2067 89.2285 72.2141 89.1925 72.2284 89.159C72.2427 89.1255 72.2637 89.0952 72.29 89.07L82.51 77.55C82.5369 77.5186 82.5709 77.494 82.6091 77.4784C82.6474 77.4627 82.6888 77.4564 82.73 77.46L94.34 78.04C94.4009 78.0448 94.4595 78.0655 94.51 78.1C94.5563 78.1589 94.578 78.2335 94.5706 78.308C94.5631 78.3826 94.5271 78.4514 94.47 78.5H94.51ZM106.65 65L96.05 76.65C96.0237 76.6821 95.9898 76.7071 95.9514 76.7228C95.913 76.7385 95.8713 76.7444 95.83 76.74L84.17 76.15C84.1077 76.1528 84.0467 76.1313 84 76.09C83.9499 76.0394 83.9218 75.9711 83.9218 75.9C83.9218 75.8288 83.9499 75.7605 84 75.71L94.22 64.19C94.278 64.1388 94.3526 64.1104 94.43 64.11L106.49 64.56C106.549 64.5657 106.605 64.5902 106.65 64.63C106.674 64.6542 106.694 64.683 106.707 64.7147C106.72 64.7465 106.727 64.7806 106.727 64.815C106.727 64.8494 106.72 64.8835 106.707 64.9152C106.694 64.947 106.674 64.9758 106.65 65ZM119.12 51.27L108.52 62.93C108.496 62.9592 108.465 62.9825 108.43 62.9981C108.396 63.0137 108.358 63.0212 108.32 63.02L96.15 62.63C96.1221 62.6316 96.0942 62.6271 96.0683 62.6167C96.0424 62.6063 96.0191 62.5904 96 62.57C95.9758 62.5467 95.9566 62.5187 95.9434 62.4878C95.9303 62.4569 95.9235 62.4236 95.9235 62.39C95.9235 62.3564 95.9303 62.3231 95.9434 62.2922C95.9566 62.2613 95.9758 62.2333 96 62.21L106.22 50.67C106.244 50.6426 106.273 50.6204 106.305 50.6049C106.338 50.5894 106.374 50.5809 106.41 50.58L118.96 50.86C119.016 50.8602 119.069 50.8817 119.11 50.92C119.133 50.9416 119.152 50.9676 119.165 50.9964C119.178 51.0252 119.185 51.0563 119.186 51.0879C119.187 51.1195 119.181 51.151 119.17 51.1805C119.159 51.21 119.142 51.237 119.12 51.26V51.27Z" fill="#2A4E63"/>
<path d="M83.5 73.13L92.39 63C92.4632 62.9174 92.5076 62.8133 92.5167 62.7033C92.5257 62.5933 92.4988 62.4834 92.44 62.39L84.31 49.39C84.2686 49.3139 84.2061 49.2514 84.13 49.21C84.0509 49.1592 83.959 49.1321 83.865 49.1321C83.771 49.1321 83.679 49.1592 83.6 49.21C83.5509 49.2351 83.5068 49.269 83.47 49.31L82.8 50.1L83.5 73.13Z" fill="white"/>
<path d="M94.28 78L82.67 77.43C82.6289 77.4272 82.5877 77.4339 82.5496 77.4495C82.5114 77.4651 82.4774 77.4892 82.45 77.52L72.23 89.03C72.1786 89.0839 72.15 89.1555 72.15 89.23C72.15 89.3045 72.1786 89.3761 72.23 89.43C72.2796 89.4676 72.3382 89.4918 72.4 89.5L83.69 90.17C83.7313 90.1744 83.773 90.1685 83.8114 90.1528C83.8498 90.1371 83.8837 90.1121 83.91 90.08L94.45 78.47C94.4763 78.4448 94.4973 78.4145 94.5116 78.381C94.5259 78.3475 94.5332 78.3114 94.5332 78.275C94.5332 78.2386 94.5259 78.2025 94.5116 78.169C94.4973 78.1355 94.4763 78.1052 94.45 78.08C94.4034 78.0358 94.3438 78.0078 94.28 78Z" fill="white"/>
<path d="M69.75 87.82C69.8187 87.9342 69.9294 88.017 70.0583 88.0506C70.1873 88.0843 70.3243 88.0661 70.44 88L70.57 87.9L80.42 76.64C80.4281 76.6071 80.4281 76.5728 80.42 76.54L63.16 76.75L69.75 87.82Z" fill="white"/>
<path d="M106.46 64.55L94.41 64.1C94.3712 64.0968 94.3322 64.1023 94.2959 64.1161C94.2596 64.13 94.2268 64.1518 94.2 64.18L84 75.7C83.9499 75.7506 83.9218 75.8188 83.9218 75.89C83.9218 75.9612 83.9499 76.0295 84 76.08C84.0223 76.1023 84.0488 76.1199 84.078 76.1319C84.1072 76.1439 84.1384 76.1501 84.17 76.15L95.84 76.73C95.8796 76.7328 95.9194 76.726 95.9559 76.7104C95.9924 76.6947 96.0247 76.6706 96.05 76.64L106.65 65C106.674 64.9758 106.694 64.947 106.707 64.9153C106.72 64.8835 106.727 64.8494 106.727 64.815C106.727 64.7806 106.72 64.7465 106.707 64.7148C106.694 64.683 106.674 64.6542 106.65 64.63C106.627 64.6022 106.598 64.5803 106.565 64.5664C106.532 64.5524 106.496 64.5468 106.46 64.55Z" fill="white"/>
<path d="M118.94 50.85L106.39 50.57C106.354 50.5703 106.318 50.5785 106.285 50.5941C106.252 50.6096 106.223 50.6321 106.2 50.66L96 62.21C95.9542 62.2567 95.9285 62.3196 95.9285 62.385C95.9285 62.4504 95.9542 62.5133 96 62.56C96.0466 62.5946 96.1021 62.6154 96.16 62.62L108.34 63.01C108.411 63.0095 108.48 62.9807 108.53 62.93L119.13 51.26C119.154 51.2375 119.173 51.2104 119.186 51.1803C119.199 51.1502 119.206 51.1178 119.206 51.085C119.206 51.0522 119.199 51.0198 119.186 50.9897C119.173 50.9596 119.154 50.9324 119.13 50.91C119.106 50.8843 119.076 50.8652 119.043 50.8547C119.01 50.8441 118.974 50.8425 118.94 50.85Z" fill="#E5F6FF"/>
<path d="M94.44 60.58C94.4847 60.5528 94.5252 60.5191 94.56 60.48L104.34 49.3C104.411 49.2026 104.449 49.0854 104.449 48.965C104.449 48.8447 104.411 48.7274 104.34 48.63L95.93 35.63C95.85 35.5059 95.7242 35.4184 95.58 35.3865C95.4358 35.3547 95.2848 35.3811 95.16 35.46L95.03 35.57L85.51 46.83C85.4415 46.9264 85.4048 47.0418 85.4048 47.16C85.4048 47.2783 85.4415 47.3936 85.51 47.49L93.66 60.44C93.7011 60.5015 93.7542 60.5541 93.8161 60.5947C93.878 60.6352 93.9474 60.6628 94.0202 60.6759C94.093 60.689 94.1678 60.6872 94.2399 60.6708C94.312 60.6543 94.3801 60.6234 94.44 60.58Z" fill="white"/>
<path d="M83.83 44.77C83.9017 44.8813 84.0146 44.9595 84.144 44.9876C84.2733 45.0158 84.4085 44.9914 84.52 44.92C84.5684 44.8983 84.6099 44.8637 84.64 44.82L94.2 33.48C94.2657 33.3957 94.3013 33.2919 94.3013 33.185C94.3013 33.0781 94.2657 32.9743 94.2 32.89L85.73 19.74C85.6582 19.6288 85.5453 19.5505 85.416 19.5224C85.2866 19.4943 85.1514 19.5186 85.04 19.59C84.9938 19.6151 84.953 19.6491 84.92 19.69L81.92 23.34L82.51 42.78L83.83 44.77Z" fill="white"/>
<path d="M98 34.14C97.9912 34.2074 98.0091 34.2757 98.05 34.33L106.91 47.93C106.938 47.9712 106.975 48.0053 107.018 48.0296C107.062 48.0539 107.11 48.0677 107.16 48.07L118.46 48.38C118.542 48.3802 118.62 48.3492 118.679 48.2935C118.739 48.2377 118.775 48.1614 118.78 48.08C118.779 48.0199 118.761 47.9613 118.73 47.91L110 34.67C109.974 34.6297 109.939 34.5965 109.897 34.5738C109.855 34.551 109.808 34.5394 109.76 34.54L98.37 33.85C98.326 33.8395 98.2803 33.839 98.2361 33.8486C98.1919 33.8582 98.1505 33.8777 98.1149 33.9056C98.0794 33.9335 98.0505 33.9691 98.0306 34.0097C98.0107 34.0502 98.0003 34.0948 98 34.14Z" fill="#E5F6FF"/>
<path d="M70.45 12.51C71.75 12.59 73.11 12.76 75.37 13.05C77.01 13.25 78.67 13.48 80.31 13.73C80.717 13.8416 81.1024 14.0208 81.45 14.26H81.54C81.5915 14.2742 81.6373 14.3039 81.6713 14.345C81.7053 14.3862 81.7258 14.4368 81.73 14.49L81.9 20.26L84.02 17.65C84.0829 17.5607 84.1166 17.4542 84.1166 17.345C84.1166 17.2358 84.0829 17.1293 84.02 17.04L75.61 4C75.5343 3.88505 75.4168 3.80408 75.2824 3.77422C75.148 3.74436 75.0073 3.76795 74.89 3.84C74.8376 3.8689 74.793 3.91008 74.76 3.96L68.08 12.5H68.14C68.9095 12.4545 69.681 12.4579 70.45 12.51Z" fill="white"/>
<path d="M96.71 32L108.21 32.75C108.245 32.7527 108.28 32.7484 108.313 32.7371C108.347 32.7259 108.377 32.7081 108.403 32.6847C108.429 32.6614 108.451 32.633 108.466 32.6012C108.48 32.5695 108.489 32.5351 108.49 32.5C108.51 32.4486 108.51 32.3915 108.49 32.34L99.67 19.04C99.6494 19.0079 99.6214 18.9811 99.5883 18.962C99.5553 18.9429 99.5181 18.9319 99.48 18.93L87.88 17.79C87.8451 17.7859 87.8096 17.7889 87.7759 17.7988C87.7421 17.8088 87.7107 17.8255 87.6836 17.8479C87.6565 17.8703 87.6342 17.8981 87.6181 17.9294C87.602 17.9607 87.5925 17.9949 87.59 18.03C87.5666 18.0877 87.5666 18.1523 87.59 18.21L96.5 31.88C96.5233 31.915 96.5543 31.944 96.5908 31.9648C96.6273 31.9857 96.6681 31.9977 96.71 32Z" fill="white"/>
<path d="M98.15 16.91C98.1522 16.8525 98.1346 16.796 98.1 16.75L89.31 3.45999C89.2921 3.42676 89.2664 3.39844 89.235 3.37751C89.2036 3.35659 89.1675 3.3437 89.13 3.33999L77.43 1.79C77.3951 1.78436 77.3593 1.78592 77.325 1.79458C77.2907 1.80324 77.2585 1.81881 77.2304 1.84034C77.2024 1.86187 77.179 1.88892 77.1617 1.91981C77.1444 1.9507 77.1336 1.98479 77.13 2.01999C77.1101 2.07492 77.1101 2.13507 77.13 2.19L86.02 15.86C86.0401 15.8934 86.0678 15.9217 86.1008 15.9425C86.1337 15.9634 86.1712 15.9762 86.21 15.98L97.82 17.15C97.8577 17.1587 97.8968 17.1593 97.9348 17.1516C97.9727 17.1439 98.0085 17.1281 98.0398 17.1053C98.0711 17.0826 98.0971 17.0533 98.1161 17.0196C98.1352 16.9859 98.1467 16.9486 98.15 16.91Z" fill="white"/>
<path d="M83.5 73.13L82.8 50.07L82.58 42.78L82 23.34L81.91 20.34L81.74 14.57C81.7358 14.5168 81.7153 14.4662 81.6813 14.425C81.6473 14.3839 81.6015 14.3542 81.55 14.34C81.55 14.34 81.48 14.34 81.46 14.34C81.1134 14.0989 80.7277 13.9196 80.32 13.81C78.68 13.56 77.02 13.33 75.38 13.13C73.12 12.85 71.76 12.67 70.46 12.59C69.6908 12.5411 68.9192 12.5411 68.15 12.59H68.09L66.83 12.67L61.7 12.97C59.4 13.15 57.03 13.29 54.64 13.41H54.4H53.4C53.3544 13.3961 53.3056 13.3961 53.26 13.41L77.42 44.95L77.49 45.05C77.4628 44.4929 77.2558 43.9596 76.9 43.53L70.59 35.44C70.5385 35.36 70.5173 35.2643 70.53 35.17C70.5332 35.1241 70.5455 35.0792 70.5661 35.038C70.5867 34.9969 70.6152 34.9601 70.65 34.93C70.7269 34.8706 70.8232 34.8421 70.92 34.85L80.55 35.62C80.8029 35.6377 81.0396 35.7509 81.2123 35.9365C81.3849 36.1222 81.4806 36.3665 81.48 36.62L81.89 53.77C81.8927 53.8777 81.8741 53.9848 81.8353 54.0854C81.7965 54.1859 81.7383 54.2777 81.6641 54.3558C81.5898 54.4338 81.5008 54.4964 81.4023 54.54C81.3038 54.5836 81.1977 54.6074 81.09 54.61L72.4 54.3C72.3283 54.3045 72.2568 54.2892 72.1932 54.2557C72.1297 54.2222 72.0767 54.1717 72.04 54.11C72.0197 54.0415 72.0197 53.9685 72.04 53.9L54.29 77.16H54.68C54.7514 77.1595 54.8198 77.1307 54.87 77.08L54.97 76.94C54.97 76.88 55.08 76.88 55.15 76.86H55.85L62.15 76.78H63.15L80.41 76.57H81.7L83.31 76.52C83.3728 76.515 83.4314 76.4864 83.474 76.4401C83.5166 76.3937 83.5402 76.333 83.54 76.27L83.5 73.13ZM80.6 33.13V33.37L80.55 33.13L70.28 32.26C70.1872 32.2524 70.1006 32.2102 70.0376 32.1416C69.9745 32.073 69.9397 31.9831 69.94 31.89L69.48 14.18C69.4799 14.1315 69.4896 14.0834 69.5085 14.0388C69.5274 13.9941 69.5551 13.9537 69.59 13.92C69.6282 13.8765 69.6764 13.843 69.7303 13.8221C69.7843 13.8012 69.8425 13.7936 69.9 13.8L80.21 15.13C80.2986 15.1417 80.3802 15.1841 80.4405 15.25C80.5008 15.3158 80.5361 15.4008 80.54 15.49L80.95 32.76C80.9476 32.853 80.9103 32.9417 80.8454 33.0084C80.7806 33.0752 80.6929 33.115 80.6 33.12V33.13ZM81.83 74.93C81.7943 74.975 81.7486 75.0111 81.6965 75.0354C81.6445 75.0597 81.5874 75.0716 81.53 75.07L71.48 75.21C71.3664 75.208 71.2575 75.1639 71.1744 75.0864C71.0913 75.0088 71.0399 74.9032 71.03 74.79L70.58 57.22C70.5786 57.1597 70.5896 57.0997 70.6123 57.0438C70.635 56.9878 70.6691 56.9372 70.7122 56.895C70.7553 56.8528 70.8067 56.8199 70.8631 56.7984C70.9195 56.7769 70.9797 56.7672 71.04 56.77L81.11 57.06C81.225 57.06 81.3354 57.1049 81.4177 57.1853C81.4999 57.2657 81.5474 57.375 81.55 57.49L81.96 74.62C81.9595 74.6761 81.9477 74.7316 81.9254 74.7832C81.9031 74.8347 81.8706 74.8812 81.83 74.92V74.93Z" fill="#2A4E63"/>
<path d="M80.6 33.12C80.6964 33.1174 80.7879 33.0773 80.8552 33.0081C80.9224 32.939 80.96 32.8464 80.96 32.75L80.55 15.48C80.5481 15.3901 80.5136 15.304 80.4528 15.2378C80.3921 15.1716 80.3093 15.1297 80.22 15.12L69.91 13.79C69.851 13.7836 69.7913 13.7911 69.7357 13.812C69.6802 13.8328 69.6303 13.8664 69.59 13.91C69.5266 13.9819 69.4911 14.0741 69.49 14.17L69.95 31.88C69.9497 31.9731 69.9845 32.063 70.0475 32.1316C70.1106 32.2001 70.1972 32.2424 70.29 32.25L80.56 33.12V33.36L80.6 33.12Z" fill="#E5F6FF"/>
<path d="M77.17 47.13L72 53.87C71.9797 53.9385 71.9797 54.0115 72 54.08C72.0367 54.1418 72.0897 54.1922 72.1532 54.2257C72.2168 54.2592 72.2883 54.2746 72.36 54.27L81.05 54.58C81.1577 54.5774 81.2638 54.5536 81.3623 54.51C81.4608 54.4664 81.5497 54.4038 81.624 54.3258C81.6983 54.2478 81.7565 54.1559 81.7953 54.0554C81.8341 53.9549 81.8527 53.8477 81.85 53.74L81.44 36.59C81.4406 36.3365 81.3449 36.0922 81.1723 35.9065C80.9996 35.7209 80.7629 35.6078 80.51 35.59L70.88 34.82C70.7832 34.8121 70.6869 34.8406 70.61 34.9C70.5752 34.9301 70.5467 34.9669 70.5261 35.008C70.5055 35.0492 70.4932 35.0941 70.49 35.14C70.4773 35.2343 70.4985 35.33 70.55 35.41L76.86 43.5C77.2158 43.9296 77.4228 44.4629 77.45 45.02L77.17 47.13Z" fill="white"/>
<path d="M71 74.78C71.0097 74.8942 71.0607 75.001 71.1436 75.0802C71.2265 75.1594 71.3355 75.2055 71.45 75.21L81.5 75.06C81.5587 75.0602 81.6167 75.0478 81.6702 75.0237C81.7237 74.9995 81.7714 74.9642 81.81 74.92C81.8887 74.8322 81.9316 74.718 81.93 74.6L81.52 57.48C81.5151 57.3675 81.4682 57.261 81.3886 57.1814C81.309 57.1018 81.2025 57.0549 81.09 57.05L71 56.76C70.9401 56.7587 70.8805 56.7693 70.8247 56.7913C70.769 56.8134 70.7182 56.8463 70.6753 56.8882C70.6325 56.9301 70.5984 56.9802 70.5752 57.0355C70.552 57.0907 70.54 57.1501 70.54 57.21L71 74.78Z" fill="#E5F6FF"/>
<path d="M77.52 45.3C77.5255 45.2267 77.5255 45.1532 77.52 45.08C77.5248 45.0334 77.5248 44.9865 77.52 44.94L53.3 13.39L45 2.59997L44.71 2.37997C44.6236 2.3208 44.5334 2.26736 44.44 2.21997C44.3006 2.133 44.1532 2.05934 44 1.99997C43.9237 1.96325 43.8431 1.93637 43.76 1.91997C43.1509 1.75125 42.5113 1.72388 41.89 1.83997C37.5167 1.76663 34.6033 1.72664 33.15 1.71997C32.5506 1.72327 31.9571 1.83858 31.4 2.05997C30.6571 2.50269 30.0054 3.08306 29.48 3.76997C26.68 7.71663 23.91 11.6833 21.17 15.67C20.8368 16.1885 20.7019 16.8099 20.79 17.42C20.7914 17.4902 20.7682 17.5586 20.7243 17.6134C20.6805 17.6682 20.6188 17.7059 20.55 17.72C20.0083 17.8119 19.5162 18.0916 19.16 18.51C16.3267 22.5633 13.5067 26.61 10.7 30.65C10.4488 31.1369 10.3847 31.699 10.52 32.23C10.531 32.2645 10.5338 32.3012 10.5279 32.337C10.5221 32.3728 10.5078 32.4067 10.4864 32.436C10.4649 32.4652 10.4369 32.489 10.4045 32.5053C10.3721 32.5217 10.3363 32.5301 10.3 32.53C9.9886 32.5464 9.68535 32.6355 9.41449 32.79C9.14363 32.9445 8.91264 33.1603 8.74001 33.42C5.96001 37.42 3.19001 41.42 0.470009 45.28C0.259126 45.6044 0.146881 45.983 0.146881 46.37C0.146881 46.7569 0.259126 47.1356 0.470009 47.46L8.47001 59.46C8.85068 59.8847 9.28814 60.2548 9.77 60.56C9.82773 60.5993 9.87573 60.6513 9.91039 60.7119C9.94504 60.7725 9.96543 60.8403 9.97001 60.91C10.043 61.7535 10.3948 62.5487 10.97 63.17L12.81 66.07L18 73.89C18.4626 74.4006 19.0239 74.8122 19.65 75.1C19.7192 75.1375 19.7776 75.1921 19.8196 75.2587C19.8616 75.3252 19.8858 75.4014 19.89 75.48V76.48C19.9006 76.6064 19.9381 76.7292 20 76.84L21.52 79.15C24.0733 82.9233 26.5667 86.6633 29 90.37C30.3 92.37 33.65 91.6 35.71 91.44L42.82 91.03C43.6299 90.7257 44.3277 90.1814 44.82 89.47L54.22 77.14L72 53.87L77.13 47.13L77.25 46.82C77.2793 46.7555 77.3027 46.6886 77.32 46.62V46.52C77.3453 46.442 77.362 46.3615 77.37 46.28C77.3988 46.1684 77.4189 46.0547 77.43 45.94C77.4399 45.8068 77.4399 45.6731 77.43 45.54C77.4655 45.4621 77.4956 45.382 77.52 45.3ZM55.52 17.48L65.2 29.91C65.2465 29.9584 65.2724 30.0229 65.2724 30.09C65.2724 30.1571 65.2465 30.2216 65.2 30.27C65.1775 30.2914 65.1507 30.3078 65.1214 30.3182C65.0921 30.3285 65.061 30.3325 65.03 30.33L53 29.87C52.9598 29.87 52.92 29.861 52.8837 29.8437C52.8474 29.8264 52.8153 29.8012 52.79 29.77L43.47 17.51C43.4229 17.4599 43.3967 17.3937 43.3967 17.325C43.3967 17.2562 43.4229 17.19 43.47 17.14C43.5219 17.101 43.5851 17.08 43.65 17.08L55.33 17.38C55.375 17.3776 55.4199 17.3853 55.4614 17.4026C55.5029 17.4199 55.5401 17.4464 55.57 17.48H55.52ZM39.91 45.77C39.969 45.8608 40.0004 45.9667 40.0004 46.075C40.0004 46.1832 39.969 46.2892 39.91 46.38L30.81 58.71C30.7704 58.7665 30.7196 58.8143 30.661 58.8506C30.6023 58.887 30.5368 58.911 30.4686 58.9213C30.4003 58.9316 30.3307 58.9279 30.2639 58.9105C30.1971 58.8931 30.1345 58.8623 30.08 58.82C30.0352 58.7851 29.9948 58.7448 29.96 58.7L21.58 46.63C21.5174 46.5443 21.4837 46.441 21.4837 46.335C21.4837 46.2289 21.5174 46.1256 21.58 46.04L30.42 33.74C30.4987 33.6278 30.6185 33.5513 30.7533 33.5269C30.8881 33.5026 31.0271 33.5324 31.14 33.61C31.1876 33.6457 31.2282 33.6897 31.26 33.74L39.91 45.77ZM32.25 31.2L36.86 24.77L41.07 18.91C41.1523 18.7965 41.2756 18.7194 41.4137 18.6952C41.5518 18.6709 41.6939 18.7013 41.81 18.78C41.8549 18.8148 41.8952 18.8551 41.93 18.9L50.88 30.83C50.9498 30.9182 50.9877 31.0275 50.9877 31.14C50.9877 31.2525 50.9498 31.3617 50.88 31.45L41.8 43.82C41.7474 43.8889 41.6788 43.9438 41.6 43.98C41.5219 44.0333 41.4296 44.0618 41.335 44.0618C41.2405 44.0618 41.1481 44.0333 41.07 43.98C41.0261 43.9513 40.9887 43.9138 40.96 43.87L32.25 31.87C32.1746 31.7746 32.1335 31.6566 32.1335 31.535C32.1335 31.4134 32.1746 31.2953 32.25 31.2ZM31.8 60.74L41 48.34C41.0393 48.2871 41.0888 48.2427 41.1457 48.2094C41.2025 48.176 41.2655 48.1546 41.3309 48.1462C41.3962 48.1378 41.4626 48.1426 41.526 48.1605C41.5894 48.1783 41.6486 48.2087 41.7 48.25C41.7404 48.2754 41.7746 48.3096 41.8 48.35L50.49 60.35C50.5511 60.4362 50.584 60.5393 50.584 60.645C50.584 60.7507 50.5511 60.8538 50.49 60.94L41 73.44C40.9615 73.4936 40.9125 73.5389 40.856 73.5732C40.7995 73.6074 40.7367 73.6298 40.6713 73.6392C40.6059 73.6485 40.5393 73.6446 40.4755 73.6275C40.4117 73.6105 40.352 73.5807 40.3 73.54L40.2 73.43L31.78 61.32C31.7226 61.2332 31.6937 61.1307 31.6973 61.0268C31.7008 60.9228 31.7368 60.8226 31.8 60.74ZM42.86 46.45C42.7915 46.3535 42.7548 46.2382 42.7548 46.12C42.7548 46.0017 42.7915 45.8864 42.86 45.79L51.97 33.49C52.0126 33.4314 52.0663 33.3819 52.1281 33.3441C52.1899 33.3064 52.2585 33.2812 52.3301 33.2701C52.4016 33.2589 52.4747 33.262 52.545 33.2791C52.6153 33.2963 52.6816 33.3272 52.74 33.37C52.7849 33.4048 52.8252 33.4451 52.86 33.49L61.77 45.37C61.8431 45.4683 61.8825 45.5875 61.8825 45.71C61.8825 45.8325 61.8431 45.9517 61.77 46.05L52.4 58.4C52.3104 58.5195 52.1773 58.5991 52.0296 58.6216C51.8818 58.644 51.7311 58.6075 51.61 58.52C51.5681 58.4813 51.5312 58.4377 51.5 58.39L42.86 46.45ZM32.53 2.68997C32.5789 2.65242 32.6384 2.6314 32.7 2.62997L44.01 2.80997C44.0515 2.80855 44.0927 2.81795 44.1295 2.83723C44.1664 2.85652 44.1975 2.88502 44.22 2.91997L53.86 15.29C53.8866 15.316 53.9078 15.3472 53.9222 15.3815C53.9366 15.4158 53.944 15.4527 53.944 15.49C53.944 15.5272 53.9366 15.5641 53.9222 15.5984C53.9078 15.6328 53.8866 15.6639 53.86 15.69C53.8018 15.7106 53.7382 15.7106 53.68 15.69L42 15.45C41.9581 15.4477 41.9173 15.4356 41.8808 15.4148C41.8444 15.394 41.8133 15.3649 41.79 15.33L32.47 3.07997C32.4265 3.02021 32.4084 2.94567 32.4196 2.8726C32.4309 2.79954 32.4706 2.73389 32.53 2.68997ZM21.64 16.58L30.19 4.34997C30.2279 4.29589 30.2761 4.24986 30.3319 4.21452C30.3877 4.17919 30.4499 4.15525 30.515 4.14409C30.5801 4.13293 30.6467 4.13478 30.7111 4.14952C30.7755 4.16426 30.8363 4.19161 30.89 4.22997C30.9372 4.24953 30.9761 4.28488 31 4.32997L40 16.33C40.0593 16.4188 40.091 16.5232 40.091 16.63C40.091 16.7368 40.0593 16.8412 40 16.93L35.46 23.29L31.22 29.24C31.14 29.3477 31.0215 29.4204 30.8891 29.4427C30.7568 29.4651 30.621 29.4355 30.51 29.36C30.4652 29.3251 30.4248 29.2848 30.39 29.24L21.66 17.24C21.579 17.1502 21.5324 17.0345 21.5288 16.9136C21.5251 16.7927 21.5645 16.6745 21.64 16.58ZM11.33 31.36L19.93 19.07C19.9641 19.02 20.0077 18.9773 20.0584 18.9442C20.109 18.9112 20.1657 18.8884 20.2251 18.8772C20.2846 18.8661 20.3456 18.8668 20.4048 18.8793C20.464 18.8917 20.5201 18.9158 20.57 18.95C20.6115 18.9814 20.6485 19.0184 20.68 19.06L29.4 31.15C29.4584 31.2279 29.49 31.3226 29.49 31.42C29.49 31.5173 29.4584 31.6121 29.4 31.69L20.55 44.07C20.516 44.1202 20.4722 44.1631 20.4213 44.196C20.3703 44.2289 20.3132 44.2511 20.2535 44.2614C20.1937 44.2717 20.1324 44.2698 20.0734 44.2558C20.0144 44.2418 19.9588 44.216 19.91 44.18L19.8 44.07L11.33 31.88C11.2716 31.8059 11.2399 31.7143 11.2399 31.62C11.2399 31.5256 11.2716 31.4341 11.33 31.36ZM10 58.87C9.96401 58.922 9.91809 58.9664 9.86488 59.0006C9.81167 59.0348 9.75222 59.0581 9.68996 59.0693C9.62769 59.0804 9.56384 59.0791 9.50207 59.0655C9.4403 59.0519 9.38182 59.0263 9.33001 58.99C9.2826 58.9541 9.24196 58.9101 9.21001 58.86L1.00001 46.66C0.944498 46.5809 0.914715 46.4866 0.914715 46.39C0.914715 46.2933 0.944498 46.1991 1.00001 46.12L9.57001 33.87C9.60585 33.8191 9.65145 33.7758 9.70415 33.7427C9.75685 33.7095 9.81561 33.6872 9.87701 33.677C9.93842 33.6668 10.0012 33.6688 10.0618 33.6831C10.1224 33.6973 10.1796 33.7234 10.23 33.76C10.2767 33.7887 10.3174 33.826 10.35 33.87L18.79 46C18.8478 46.08 18.8789 46.1762 18.8789 46.275C18.8789 46.3737 18.8478 46.4699 18.79 46.55L10 58.87ZM19.86 73.61C19.8204 73.665 19.7702 73.7116 19.7123 73.747C19.6545 73.7824 19.5902 73.8059 19.5231 73.8162C19.4561 73.8264 19.3877 73.8232 19.3219 73.8067C19.2561 73.7902 19.1943 73.7607 19.14 73.72C19.0925 73.6843 19.0518 73.6402 19.02 73.59L10.95 61.47C10.8874 61.3843 10.8537 61.281 10.8537 61.175C10.8537 61.0689 10.8874 60.9656 10.95 60.88L19.77 48.59C19.8097 48.5335 19.8604 48.4856 19.9191 48.4493C19.9778 48.413 20.0432 48.3889 20.1115 48.3787C20.1797 48.3684 20.2493 48.3721 20.3161 48.3895C20.3829 48.4069 20.4455 48.4377 20.5 48.48C20.5473 48.512 20.588 48.5527 20.62 48.6L29 60.68C29.0611 60.7662 29.094 60.8693 29.094 60.975C29.094 61.0807 29.0611 61.1838 29 61.27L19.86 73.61ZM29 88.5C28.9518 88.4618 28.9082 88.4181 28.87 88.37L20.8 76.27C20.7419 76.1807 20.711 76.0765 20.711 75.97C20.711 75.8635 20.7419 75.7592 20.8 75.67L29.94 63.28C29.9796 63.2249 30.0298 63.1783 30.0877 63.1429C30.1455 63.1075 30.2099 63.084 30.2769 63.0738C30.344 63.0635 30.4124 63.0667 30.4781 63.0833C30.5439 63.0998 30.6058 63.1293 30.66 63.17C30.7071 63.2022 30.7478 63.2429 30.78 63.29L39.12 75.38C39.1865 75.4658 39.2226 75.5714 39.2226 75.68C39.2226 75.7886 39.1865 75.8941 39.12 75.98L29.72 88.39C29.6368 88.4968 29.5158 88.5678 29.3819 88.5882C29.248 88.6087 29.1113 88.5771 29 88.5ZM53.12 77.36L43.32 90C43.2995 90.0315 43.2713 90.0572 43.238 90.0747C43.2048 90.0922 43.1676 90.1009 43.13 90.1L31.34 90.76C31.2716 90.7629 31.2046 90.7398 31.1526 90.6952C31.1007 90.6507 31.0675 90.588 31.06 90.52C31.0582 90.4578 31.0796 90.3972 31.12 90.35L41.01 77.35C41.0316 77.3165 41.0612 77.2889 41.0961 77.2697C41.131 77.2505 41.1702 77.2403 41.21 77.24L52.88 76.95C52.9492 76.9523 53.0151 76.9801 53.0649 77.0281C53.1148 77.0761 53.1451 77.1409 53.15 77.21C53.1488 77.2656 53.1275 77.3189 53.09 77.36H53.12ZM64.61 62.59L54.82 75.18C54.7947 75.2112 54.7627 75.2364 54.7263 75.2537C54.69 75.271 54.6503 75.28 54.61 75.28L42.97 75.54C42.8991 75.5401 42.8307 75.5134 42.7788 75.4651C42.7268 75.4169 42.6951 75.3507 42.69 75.28C42.6872 75.2177 42.7087 75.1567 42.75 75.11L52.67 62.11C52.6977 62.079 52.7316 62.0541 52.7695 62.0368C52.8074 62.0196 52.8484 62.0105 52.89 62.01L64.41 62.13C64.4799 62.1326 64.546 62.1621 64.5945 62.2125C64.643 62.2629 64.6701 62.3301 64.67 62.4C64.6712 62.4365 64.6636 62.4728 64.648 62.5059C64.6323 62.5389 64.609 62.5677 64.58 62.59H64.61ZM76 47.85L66.25 60.39C66.22 60.4268 66.1817 60.4559 66.1383 60.4751C66.0948 60.4942 66.0474 60.5027 66 60.5L54.59 60.32C54.5493 60.3215 54.5088 60.3144 54.4711 60.2992C54.4333 60.284 54.3992 60.2611 54.3709 60.2318C54.3426 60.2026 54.3208 60.1677 54.3069 60.1295C54.2929 60.0913 54.2872 60.0506 54.29 60.01C54.29 59.9451 54.3111 59.8819 54.35 59.83L64.21 46.94C64.2435 46.9007 64.2848 46.8688 64.3313 46.8464C64.3778 46.824 64.4284 46.8116 64.48 46.81L75.77 47.36C75.825 47.3639 75.878 47.3824 75.9235 47.4136C75.969 47.4448 76.0054 47.4875 76.0288 47.5375C76.0522 47.5874 76.0619 47.6427 76.0569 47.6976C76.0518 47.7526 76.0322 47.8052 76 47.85ZM76.56 44.85C76.5405 44.8692 76.5168 44.8837 76.4908 44.8923C76.4648 44.901 76.4372 44.9036 76.41 44.9L63.87 44.23C63.8338 44.2312 63.7979 44.2225 63.7662 44.2049C63.7344 44.1873 63.7081 44.1614 63.69 44.13L54.36 31.85C54.3142 31.8032 54.2885 31.7404 54.2885 31.675C54.2885 31.6095 54.3142 31.5467 54.36 31.5C54.3806 31.4793 54.406 31.4639 54.4338 31.4552C54.4617 31.4465 54.4913 31.4447 54.52 31.45L66.69 31.97C66.7266 31.9726 66.7621 31.984 66.7934 32.0031C66.8247 32.0222 66.851 32.0486 66.87 32.08L76.56 44.51C76.5899 44.5294 76.6151 44.5552 76.6338 44.5856C76.6524 44.6159 76.6641 44.65 76.6679 44.6855C76.6717 44.7209 76.6676 44.7567 76.6559 44.7904C76.6441 44.824 76.6251 44.8546 76.6 44.88L76.56 44.85Z" fill="#2A4E63"/>
<path d="M41.8 15.34C41.8564 15.4037 41.9352 15.4431 42.02 15.45L53.63 15.75C53.6952 15.7516 53.7588 15.7304 53.81 15.69C53.8363 15.6648 53.8573 15.6346 53.8716 15.601C53.8859 15.5675 53.8933 15.5315 53.8933 15.495C53.8933 15.4586 53.8859 15.4225 53.8716 15.389C53.8573 15.3555 53.8363 15.3252 53.81 15.3L44.18 2.92002C44.1547 2.88558 44.1215 2.85764 44.0833 2.83852C44.045 2.8194 44.0028 2.80963 43.96 2.81002L32.66 2.63002C32.5949 2.62847 32.5312 2.64969 32.48 2.69003C32.4293 2.74228 32.4009 2.81222 32.4009 2.88503C32.4009 2.95784 32.4293 3.02778 32.48 3.08003L41.8 15.34Z" fill="white"/>
<path d="M43.5 17.14C43.4529 17.1901 43.4267 17.2563 43.4267 17.325C43.4267 17.3938 43.4529 17.46 43.5 17.51L52.82 29.77C52.8438 29.8005 52.8741 29.8253 52.9087 29.8426C52.9433 29.8599 52.9813 29.8693 53.02 29.87L65.08 30.33C65.1358 30.3444 65.1943 30.3444 65.25 30.33C65.2978 30.2783 65.3243 30.2105 65.3243 30.14C65.3243 30.0696 65.2978 30.0018 65.25 29.95L55.57 17.53C55.5442 17.4993 55.5121 17.4744 55.4759 17.4572C55.4397 17.4399 55.4001 17.4307 55.36 17.43L43.68 17.13C43.6204 17.1148 43.5576 17.1183 43.5 17.14Z" fill="white"/>
<path d="M76.65 44.54L67 32.1C66.9788 32.0715 66.9518 32.0479 66.9208 32.0306C66.8897 32.0134 66.8554 32.0029 66.82 32L54.65 31.48C54.6213 31.4747 54.5917 31.4765 54.5638 31.4853C54.5359 31.494 54.5106 31.5093 54.49 31.53C54.4676 31.5523 54.4499 31.5788 54.4378 31.608C54.4256 31.6371 54.4194 31.6684 54.4194 31.7C54.4194 31.7316 54.4256 31.7629 54.4378 31.792C54.4499 31.8212 54.4676 31.8477 54.49 31.87L63.82 44.16C63.8407 44.189 63.8676 44.213 63.8987 44.2303C63.9299 44.2476 63.9644 44.2577 64 44.26L76.53 44.94C76.5872 44.9401 76.643 44.9226 76.69 44.89C76.7309 44.8382 76.7496 44.7723 76.7421 44.7068C76.7346 44.6412 76.7015 44.5812 76.65 44.54Z" fill="white"/>
<path d="M51.62 58.51C51.6781 58.5549 51.7446 58.5877 51.8155 58.6065C51.8865 58.6254 51.9605 58.6298 52.0332 58.6195C52.1059 58.6093 52.1758 58.5846 52.2388 58.5469C52.3018 58.5092 52.3566 58.4592 52.4 58.4L61.77 46.05C61.8431 45.9517 61.8825 45.8325 61.8825 45.71C61.8825 45.5876 61.8431 45.4683 61.77 45.37L52.86 33.49C52.8285 33.4485 52.7915 33.4115 52.75 33.38C52.6911 33.3349 52.6238 33.3019 52.5521 33.2829C52.4803 33.264 52.4055 33.2595 52.332 33.2698C52.2585 33.28 52.1877 33.3047 52.1239 33.3425C52.06 33.3804 52.0043 33.4305 51.96 33.49L42.86 45.79C42.7901 45.8859 42.7524 46.0014 42.7524 46.12C42.7524 46.2386 42.7901 46.3542 42.86 46.45L51.5 58.39C51.5292 58.4395 51.5705 58.4808 51.62 58.51Z" fill="white"/>
<path d="M40.2 73.43C40.2313 73.4746 40.2683 73.5149 40.31 73.55C40.417 73.627 40.5496 73.6597 40.6801 73.641C40.8107 73.6224 40.9289 73.5539 41.01 73.45L50.46 61C50.5234 60.9128 50.5576 60.8078 50.5576 60.7C50.5576 60.5922 50.5234 60.4872 50.46 60.4L41.79 48.4L41.68 48.29C41.6269 48.2511 41.5666 48.2231 41.5026 48.2076C41.4386 48.1921 41.3722 48.1894 41.3072 48.1996C41.2421 48.2098 41.1797 48.2328 41.1236 48.2672C41.0674 48.3016 41.0187 48.3467 40.98 48.4L31.8 60.74C31.7397 60.8247 31.7073 60.9261 31.7073 61.03C31.7073 61.134 31.7397 61.2353 31.8 61.32L40.2 73.43Z" fill="white"/>
<path d="M66.29 60.39L76 47.85C76.0362 47.8042 76.0571 47.7483 76.06 47.69C76.0627 47.6492 76.0573 47.6084 76.0442 47.5697C76.0311 47.5311 76.0105 47.4954 75.9835 47.4647C75.9566 47.4341 75.9239 47.409 75.8872 47.391C75.8506 47.3731 75.8107 47.3625 75.77 47.36L64.48 46.82C64.4301 46.8167 64.3802 46.826 64.3347 46.8469C64.2893 46.8679 64.2499 46.8999 64.22 46.94L54.35 59.83C54.311 59.8819 54.29 59.945 54.29 60.01C54.2887 60.0507 54.2954 60.0913 54.3097 60.1294C54.3241 60.1675 54.3458 60.2024 54.3737 60.2321C54.4015 60.2619 54.435 60.2858 54.4721 60.3026C54.5092 60.3194 54.5493 60.3287 54.59 60.33L66 60.5C66.0538 60.5098 66.1092 60.5047 66.1603 60.4853C66.2114 60.466 66.2563 60.433 66.29 60.39Z" fill="white"/>
<path d="M19.8 44.06C19.8287 44.1066 19.866 44.1473 19.91 44.18C19.9588 44.216 20.0144 44.2418 20.0734 44.2558C20.1324 44.2698 20.1937 44.2717 20.2534 44.2614C20.3132 44.2511 20.3703 44.2289 20.4213 44.196C20.4722 44.1631 20.516 44.1202 20.55 44.07L29.4 31.7C29.4584 31.6221 29.49 31.5273 29.49 31.43C29.49 31.3326 29.4584 31.2379 29.4 31.16L20.67 19.06C20.6445 19.0196 20.6104 18.9854 20.57 18.96C20.4701 18.8883 20.3461 18.8587 20.2246 18.8774C20.1031 18.896 19.9937 18.9616 19.92 19.06L11.33 31.36C11.2762 31.436 11.2473 31.5268 11.2473 31.62C11.2473 31.7131 11.2762 31.804 11.33 31.88L19.8 44.06Z" fill="#E5F6FF"/>
<path d="M18.79 46L10.4 33.9C10.3708 33.8505 10.3295 33.8092 10.28 33.78C10.229 33.744 10.1713 33.7185 10.1103 33.705C10.0493 33.6915 9.98626 33.6903 9.92482 33.7015C9.86337 33.7127 9.80476 33.736 9.75242 33.77C9.70008 33.8041 9.65507 33.8483 9.62 33.9L1.05 46.14C0.995825 46.2196 0.966858 46.3137 0.966858 46.41C0.966858 46.5063 0.995825 46.6004 1.05 46.68L9.19 58.88C9.22178 58.9302 9.26244 58.9743 9.30999 59.01C9.36181 59.0463 9.42029 59.0719 9.48206 59.0856C9.54383 59.0992 9.60768 59.1004 9.66994 59.0893C9.7322 59.0781 9.79165 59.0548 9.84486 59.0206C9.89807 58.9864 9.944 58.942 9.98 58.89L18.8 46.55C18.8549 46.4683 18.8834 46.3718 18.8816 46.2734C18.8798 46.175 18.8478 46.0796 18.79 46Z" fill="#E5F6FF"/>
<path d="M31.15 33.62C31.0957 33.5784 31.0334 33.5484 30.967 33.5319C30.9006 33.5154 30.8315 33.5126 30.764 33.5239C30.6965 33.5351 30.632 33.5601 30.5746 33.5973C30.5171 33.6345 30.4679 33.683 30.43 33.74L21.59 46C21.5289 46.0862 21.496 46.1893 21.496 46.295C21.496 46.4007 21.5289 46.5038 21.59 46.59L30 58.7C30.0292 58.7495 30.0705 58.7908 30.12 58.82C30.1751 58.861 30.2377 58.8906 30.3043 58.9073C30.3708 58.9239 30.4401 58.9272 30.5079 58.917C30.5758 58.9068 30.6409 58.8832 30.6997 58.8477C30.7584 58.8122 30.8095 58.7654 30.85 58.71L39.95 46.38C40.0128 46.2907 40.0466 46.1842 40.0466 46.075C40.0466 45.9658 40.0128 45.8593 39.95 45.77L31.31 33.77C31.2747 33.7037 31.2184 33.6509 31.15 33.62Z" fill="#E5F6FF"/>
<path d="M28.94 60.67L20.6 48.6C20.5646 48.5494 20.5206 48.5054 20.47 48.47C20.3583 48.3914 20.2201 48.36 20.0854 48.3824C19.9507 48.4049 19.8302 48.4794 19.75 48.59L10.93 60.88C10.8674 60.9656 10.8337 61.0689 10.8337 61.175C10.8337 61.2811 10.8674 61.3844 10.93 61.47L19 73.59C19.0318 73.6402 19.0725 73.6843 19.12 73.72C19.1743 73.7607 19.2361 73.7902 19.3019 73.8067C19.3676 73.8232 19.4361 73.8264 19.5031 73.8162C19.5702 73.806 19.6345 73.7824 19.6923 73.747C19.7502 73.7116 19.8004 73.665 19.84 73.61L28.94 61.28C29.0028 61.1907 29.0366 61.0842 29.0366 60.975C29.0366 60.8658 29.0028 60.7593 28.94 60.67Z" fill="#E5F6FF"/>
<path d="M39.11 75.37L30.77 63.29L30.65 63.17C30.5379 63.0898 30.399 63.0564 30.2627 63.077C30.1264 63.0975 30.0035 63.1703 29.92 63.28L20.79 75.67C20.7266 75.7571 20.6924 75.8622 20.6924 75.97C20.6924 76.0778 20.7266 76.1828 20.79 76.27L28.85 88.37L28.97 88.5C29.0245 88.5415 29.0866 88.5718 29.1528 88.5892C29.219 88.6067 29.288 88.6109 29.3558 88.6016C29.4236 88.5923 29.4889 88.5697 29.548 88.5351C29.6071 88.5005 29.6587 88.4546 29.7 88.4L39.1 76C39.1689 75.9098 39.207 75.8 39.2088 75.6866C39.2106 75.5732 39.176 75.4622 39.11 75.37Z" fill="#E5F6FF"/>
<path d="M64.59 62.59C64.6056 62.5378 64.6056 62.4822 64.59 62.43C64.59 62.3601 64.563 62.2929 64.5145 62.2425C64.466 62.1922 64.3999 62.1626 64.33 62.16L52.86 62C52.8183 61.9999 52.7771 62.0087 52.7391 62.026C52.7011 62.0432 52.6673 62.0685 52.64 62.1L42.72 75.1C42.6811 75.1519 42.66 75.2151 42.66 75.28C42.6651 75.3507 42.6968 75.4169 42.7488 75.4652C42.8007 75.5134 42.8691 75.5402 42.94 75.54L54.58 75.28C54.6201 75.2794 54.6596 75.2701 54.6959 75.2528C54.7321 75.2356 54.7642 75.2107 54.79 75.18L64.59 62.59Z" fill="white"/>
<path d="M52.88 76.94L41.21 77.23C41.1713 77.2307 41.1333 77.2401 41.0987 77.2574C41.0641 77.2747 41.0338 77.2995 41.01 77.33L31.12 90.33C31.1003 90.3533 31.0857 90.3805 31.0771 90.4097C31.0685 90.439 31.0661 90.4697 31.07 90.5C31.0751 90.5672 31.1061 90.6298 31.1565 90.6745C31.2069 90.7193 31.2727 90.7428 31.34 90.74L43.13 90.08C43.1674 90.08 43.2043 90.071 43.2374 90.0535C43.2705 90.0361 43.2988 90.0109 43.32 89.98L53.09 77.39C53.1023 77.3651 53.1087 77.3378 53.1087 77.31C53.1087 77.2822 53.1023 77.2549 53.09 77.23C53.0988 77.164 53.0819 77.0971 53.0429 77.0431C53.0038 76.9891 52.9455 76.9522 52.88 76.94Z" fill="white"/>
<path d="M41.81 18.78C41.6967 18.7009 41.557 18.6692 41.4206 18.6916C41.2843 18.714 41.162 18.7888 41.08 18.9L36.87 24.76L32.25 31.2C32.1849 31.2903 32.1499 31.3987 32.1499 31.51C32.1499 31.6213 32.1849 31.7298 32.25 31.82L40.94 43.82C40.9748 43.8649 41.0152 43.9052 41.06 43.94C41.1399 43.9886 41.2315 44.0143 41.325 44.0143C41.4185 44.0143 41.5102 43.9886 41.59 43.94C41.6708 43.9072 41.7403 43.8516 41.79 43.78L50.88 31.41C50.9481 31.321 50.985 31.2121 50.985 31.1C50.985 30.988 50.9481 30.879 50.88 30.79L41.93 18.9C41.8952 18.8552 41.8549 18.8149 41.81 18.78Z" fill="white"/>
<path d="M21.65 17.17L30.38 29.17C30.4126 29.214 30.4534 29.2513 30.5 29.28C30.6094 29.3549 30.7436 29.3843 30.8743 29.3619C31.005 29.3395 31.1218 29.2671 31.2 29.16L35.46 23.16L40 16.9C40.0606 16.8117 40.0931 16.7071 40.0931 16.6C40.0931 16.4929 40.0606 16.3883 40 16.3L31 4.3L30.88 4.17999C30.7694 4.10611 30.6343 4.07835 30.5036 4.10263C30.3728 4.12692 30.2567 4.20132 30.18 4.30999L21.63 16.54C21.5711 16.6252 21.5395 16.7264 21.5395 16.83C21.5395 16.9336 21.5711 17.0348 21.63 17.12L21.65 17.17Z" fill="white"/>
</svg>
